<svg xmlns="http://www.w3.org/2000/svg" width="20" height="20" viewBox="0 0 20 20" fill="none">
  <path d="M7.90748 5.83301H5.16683C4.23341 5.83301 3.76635 5.83301 3.40983 6.01466C3.09623 6.17445 2.84144 6.42923 2.68166 6.74284C2.5 7.09936 2.5 7.56642 2.5 8.49984V13.1665C2.5 14.0999 2.5 14.566 2.68166 14.9225C2.84144 15.2361 3.09623 15.4917 3.40983 15.6515C3.766 15.833 4.23249 15.833 5.16409 15.833H14.8359C15.7675 15.833 16.2333 15.833 16.5895 15.6515C16.9031 15.4917 17.1587 15.2361 17.3185 14.9225C17.5 14.5663 17.5 14.1005 17.5 13.1689V8.4971C17.5 7.5655 17.5 7.09901 17.3185 6.74284C17.1587 6.42923 16.9031 6.17445 16.5895 6.01466C16.233 5.83301 15.7669 5.83301 14.8335 5.83301H12.0924M7.90748 5.83301H7.95898M7.90748 5.83301C7.91792 5.83301 7.9289 5.83301 7.94047 5.83301L7.95898 5.83301M7.90748 5.83301C7.81905 5.83297 7.76949 5.83251 7.73031 5.82812C7.24065 5.7733 6.90482 5.30724 7.00765 4.82537C7.01722 4.78053 7.03613 4.72379 7.07359 4.61144L7.0752 4.60669C7.11797 4.47836 7.13936 4.4142 7.16298 4.35758C7.40489 3.77791 7.95268 3.3837 8.5791 3.33752C8.64029 3.33301 8.70751 3.33301 8.84277 3.33301H11.1572C11.2924 3.33301 11.3602 3.33301 11.4214 3.33752C12.0478 3.3837 12.595 3.77791 12.8369 4.35758C12.8605 4.4142 12.882 4.47829 12.9248 4.60661C12.9633 4.72217 12.9826 4.77997 12.9923 4.82545C13.0951 5.30732 12.7598 5.7733 12.2702 5.82812C12.231 5.83251 12.1809 5.83297 12.0924 5.83301M7.95898 5.83301H12.0408M12.0408 5.83301H12.0924M12.0408 5.83301L12.0593 5.83301C12.0709 5.83301 12.0819 5.83301 12.0924 5.83301M10 13.333C8.61929 13.333 7.5 12.2137 7.5 10.833C7.5 9.4523 8.61929 8.33301 10 8.33301C11.3807 8.33301 12.5 9.4523 12.5 10.833C12.5 12.2137 11.3807 13.333 10 13.333Z" stroke="#E9E9E9" stroke-width="1.5" stroke-linecap="round" stroke-linejoin="round"/>
</svg>