<svg xmlns="http://www.w3.org/2000/svg" width="16" height="16" viewBox="0 0 16 16" fill="none">
<path d="M6 7.33366V13.3337M6 7.33366H3.06641C2.69304 7.33366 2.50654 7.33366 2.36393 7.40632C2.23849 7.47024 2.13658 7.57215 2.07266 7.69759C2 7.8402 2 8.02702 2 8.40039V13.3337H6M6 7.33366V3.73372C6 3.36036 6 3.17353 6.07266 3.03092C6.13658 2.90548 6.23849 2.80357 6.36393 2.73965C6.50654 2.66699 6.69304 2.66699 7.06641 2.66699H8.93307C9.30644 2.66699 9.49352 2.66699 9.63613 2.73965C9.76157 2.80357 9.86317 2.90548 9.92708 3.03092C9.99975 3.17353 10 3.36036 10 3.73372V5.33366M6 13.3337H10M10 13.3337L14 13.3337V6.40039C14 6.02702 13.9997 5.8402 13.9271 5.69759C13.8632 5.57215 13.762 5.47024 13.6365 5.40632C13.4939 5.33366 13.3067 5.33366 12.9333 5.33366H10M10 13.3337V5.33366" stroke="#E9E9E9" stroke-width="1.5" stroke-linecap="round" stroke-linejoin="round"/>
</svg>