<svg xmlns="http://www.w3.org/2000/svg" width="24" height="24" viewBox="0 0 24 24" fill="none">
  <path d="M6.59937 9H17.3994M6.59937 9C6.03932 9 5.75859 9 5.54468 9.10899C5.35652 9.20487 5.20365 9.35774 5.10778 9.5459C4.99878 9.75981 4.99878 10.04 4.99878 10.6001V15.8001C4.99878 16.9202 4.99878 17.4804 5.21677 17.9082C5.40852 18.2845 5.71426 18.5905 6.09058 18.7822C6.51798 19 7.07778 19 8.19569 19H15.8015C16.9194 19 17.4784 19 17.9058 18.7822C18.2821 18.5905 18.5893 18.2844 18.781 17.9081C18.9988 17.4807 18.9988 16.9216 18.9988 15.8037V10.591C18.9988 10.037 18.9988 9.75865 18.8904 9.5459C18.7945 9.35774 18.6409 9.20487 18.4528 9.10899C18.2389 9 17.9594 9 17.3994 9M6.59937 9H4.97409C4.125 9 3.7007 9 3.45972 8.85156C3.13813 8.65347 2.9558 8.29079 2.98804 7.91447C3.01222 7.63223 3.26495 7.29089 3.77124 6.60739C3.91768 6.40971 3.99092 6.31084 4.08055 6.23535C4.20006 6.1347 4.34188 6.06322 4.4939 6.02709C4.60791 6 4.73029 6 4.97632 6H19.0207C19.2667 6 19.3894 6 19.5034 6.02709C19.6555 6.06322 19.7972 6.1347 19.9168 6.23535C20.0064 6.31084 20.0799 6.40924 20.2263 6.60693C20.7326 7.29042 20.9858 7.63218 21.0099 7.91442C21.0422 8.29074 20.8592 8.65347 20.5376 8.85156C20.2966 9 19.8713 9 19.0222 9H17.3994M9.99878 14H13.9988" stroke="#FE7211" stroke-width="2" stroke-linecap="round" stroke-linejoin="round"/>
</svg>