<svg xmlns="http://www.w3.org/2000/svg" width="20" height="20" viewBox="0 0 20 20" fill="none">
  <path d="M7.90748 5.83325H5.16683C4.23341 5.83325 3.76635 5.83325 3.40983 6.01491C3.09623 6.1747 2.84144 6.42948 2.68166 6.74308C2.5 7.0996 2.5 7.56666 2.5 8.50008V13.1667C2.5 14.1002 2.5 14.5662 2.68166 14.9227C2.84144 15.2364 3.09623 15.492 3.40983 15.6518C3.766 15.8333 4.23249 15.8333 5.16409 15.8333H14.8359C15.7675 15.8333 16.2333 15.8333 16.5895 15.6518C16.9031 15.492 17.1587 15.2364 17.3185 14.9227C17.5 14.5666 17.5 14.1008 17.5 13.1692V8.49734C17.5 7.56575 17.5 7.09925 17.3185 6.74308C17.1587 6.42948 16.9031 6.1747 16.5895 6.01491C16.233 5.83325 15.7669 5.83325 14.8335 5.83325H12.0924M7.90748 5.83325H7.95898M7.90748 5.83325C7.91792 5.83326 7.9289 5.83325 7.94047 5.83325L7.95898 5.83325M7.90748 5.83325C7.81905 5.83321 7.76949 5.83276 7.73031 5.82837C7.24065 5.77355 6.90482 5.30748 7.00765 4.82562C7.01722 4.78078 7.03613 4.72404 7.07359 4.61168L7.0752 4.60693C7.11797 4.47861 7.13936 4.41445 7.16298 4.35783C7.40489 3.77816 7.95268 3.38394 8.5791 3.33776C8.64029 3.33325 8.70751 3.33325 8.84277 3.33325H11.1572C11.2924 3.33325 11.3602 3.33325 11.4214 3.33776C12.0478 3.38394 12.595 3.77816 12.8369 4.35783C12.8605 4.41445 12.882 4.47854 12.9248 4.60685C12.9633 4.72241 12.9826 4.78022 12.9923 4.8257C13.0951 5.30756 12.7598 5.77355 12.2702 5.82837C12.231 5.83276 12.1809 5.83321 12.0924 5.83325M7.95898 5.83325H12.0408M12.0408 5.83325H12.0924M12.0408 5.83325L12.0593 5.83325C12.0709 5.83325 12.0819 5.83326 12.0924 5.83325M10 13.3333C8.61929 13.3333 7.5 12.214 7.5 10.8333C7.5 9.45254 8.61929 8.33325 10 8.33325C11.3807 8.33325 12.5 9.45254 12.5 10.8333C12.5 12.214 11.3807 13.3333 10 13.3333Z" stroke="#E9E9E9" stroke-width="1.5" stroke-linecap="round" stroke-linejoin="round"/>
</svg>