<svg xmlns="http://www.w3.org/2000/svg" width="20" height="21" viewBox="0 0 20 21" fill="none">
<path d="M2.5 5.66683V15.3335C2.5 16.2669 2.5 16.733 2.68166 17.0895C2.84144 17.4031 3.09623 17.6587 3.40983 17.8185C3.766 18 4.23249 18 5.16409 18H14.8359C15.7675 18 16.2333 18 16.5895 17.8185C16.9031 17.6587 17.1587 17.4031 17.3185 17.0895C17.5 16.7333 17.5 16.2675 17.5 15.3359V5.66409C17.5 4.73249 17.5 4.266 17.3185 3.90983C17.1587 3.59623 16.9031 3.34144 16.5895 3.18166C16.233 3 15.7669 3 14.8335 3H5.16683C4.23341 3 3.76635 3 3.40983 3.18166C3.09623 3.34144 2.84144 3.59623 2.68166 3.90983C2.5 4.26635 2.5 4.73341 2.5 5.66683Z" stroke="#CCC5C0" stroke-width="1.5" stroke-linecap="round" stroke-linejoin="round"/>
</svg>
