<svg xmlns="http://www.w3.org/2000/svg" width="20" height="21" viewBox="0 0 20 21" fill="none">
  <path d="M1.66602 5.13014V15.8709C1.66602 16.908 1.66602 17.4263 1.86786 17.8224C2.0454 18.1709 2.32849 18.4545 2.67694 18.632C3.07268 18.8337 3.59101 18.8337 4.62612 18.8337H15.3726C16.4077 18.8337 16.9253 18.8337 17.321 18.632C17.6695 18.4545 17.9535 18.1709 18.131 17.8224C18.3327 17.4267 18.3327 16.9091 18.3327 15.874V5.12709C18.3327 4.09199 18.3327 3.57366 18.131 3.17792C17.9535 2.82947 17.6695 2.54638 17.321 2.36883C16.9249 2.16699 16.407 2.16699 15.3699 2.16699H4.62916C3.59203 2.16699 3.07307 2.16699 2.67694 2.36883C2.32849 2.54638 2.0454 2.82947 1.86786 3.17792C1.66602 3.57405 1.66602 4.093 1.66602 5.13014Z" fill="#FE7211"/>
  <path d="M13.333 8L8.88851 13L6.66602 10.5" stroke="#E9E9E9" stroke-width="2" stroke-linecap="round" stroke-linejoin="round"/>
</svg>