<svg xmlns="http://www.w3.org/2000/svg" width="25" height="24" viewBox="0 0 25 24" fill="none">
<path d="M2.5 5.55577V18.4447C2.5 19.6892 2.5 20.3112 2.74221 20.7865C2.95526 21.2047 3.29497 21.545 3.71311 21.758C4.188 22 4.80999 22 6.05212 22H18.9479C20.19 22 20.8111 22 21.286 21.758C21.7041 21.545 22.045 21.2047 22.258 20.7865C22.5 20.3116 22.5 19.6905 22.5 18.4484V5.55212C22.5 4.30999 22.5 3.688 22.258 3.21311C22.045 2.79497 21.7041 2.45526 21.286 2.24221C20.8106 2 20.1892 2 18.9447 2H6.05577C4.81121 2 4.18847 2 3.71311 2.24221C3.29497 2.45526 2.95526 2.79497 2.74221 3.21311C2.5 3.68847 2.5 4.31121 2.5 5.55577Z" fill="#FE7211"/>
<path d="M16.5003 9L11.167 15L8.5 12" stroke="#E2E2E2" stroke-width="2" stroke-linecap="round" stroke-linejoin="round"/>
</svg>