<svg xmlns="http://www.w3.org/2000/svg" width="17" height="16" viewBox="0 0 17 16" fill="none">
<path d="M10.5 11C10.5 11.5523 10.9477 12 11.5 12C12.0523 12 12.5 11.5523 12.5 11C12.5 10.4477 12.0523 10 11.5 10C10.9477 10 10.5 10.4477 10.5 11Z" stroke="#E2E2E2" stroke-width="2" stroke-linecap="round" stroke-linejoin="round"/>
<path d="M4.5 11C4.5 11.5523 4.94772 12 5.5 12C6.05228 12 6.5 11.5523 6.5 11C6.5 10.4477 6.05228 10 5.5 10C4.94772 10 4.5 10.4477 4.5 11Z" stroke="#E2E2E2" stroke-width="2" stroke-linecap="round" stroke-linejoin="round"/>
<path d="M10.5 5C10.5 5.55228 10.9477 6 11.5 6C12.0523 6 12.5 5.55228 12.5 5C12.5 4.44772 12.0523 4 11.5 4C10.9477 4 10.5 4.44772 10.5 5Z" stroke="#E2E2E2" stroke-width="2" stroke-linecap="round" stroke-linejoin="round"/>
<path d="M4.5 5C4.5 5.55228 4.94772 6 5.5 6C6.05228 6 6.5 5.55228 6.5 5C6.5 4.44772 6.05228 4 5.5 4C4.94772 4 4.5 4.44772 4.5 5Z" stroke="#E2E2E2" stroke-width="2" stroke-linecap="round" stroke-linejoin="round"/>
</svg>