<svg xmlns="http://www.w3.org/2000/svg" width="44" height="44" viewBox="0 0 44 44" fill="none">
<path d="M4.28076 18.9505C3.70647 18.4194 4.01843 17.4593 4.7952 17.3672L15.8018 16.0617C16.1183 16.0242 16.3933 15.8254 16.5269 15.5359L21.1693 5.47127C21.4969 4.76097 22.5067 4.76083 22.8343 5.47113L27.4767 15.5357C27.6103 15.8252 27.8834 16.0245 28.2 16.062L39.2072 17.3672C39.984 17.4593 40.295 18.4197 39.7208 18.9508L31.5842 26.4766C31.3502 26.693 31.246 27.0152 31.3081 27.3279L33.4675 38.199C33.62 38.9662 32.8034 39.5607 32.1209 39.1786L22.4494 33.7635C22.1712 33.6078 21.8333 33.6085 21.5551 33.7643L11.8826 39.1772C11.2001 39.5593 10.3821 38.9662 10.5345 38.199L12.6943 27.3286C12.7564 27.0159 12.6524 26.693 12.4184 26.4765L4.28076 18.9505Z" fill="#545250" stroke="#545250" stroke-width="2" stroke-linecap="round" stroke-linejoin="round"/>
</svg>