<svg xmlns="http://www.w3.org/2000/svg" width="17" height="16" viewBox="0 0 17 16" fill="none">
<path d="M6.5 7.33329V13.3333M6.5 7.33329H3.56641C3.19304 7.33329 3.00654 7.33329 2.86393 7.40595C2.73849 7.46987 2.63658 7.57178 2.57266 7.69722C2.5 7.83983 2.5 8.02666 2.5 8.40002V13.3333H6.5M6.5 7.33329V3.73336C6.5 3.35999 6.5 3.17317 6.57266 3.03056C6.63658 2.90512 6.73849 2.8032 6.86393 2.73929C7.00654 2.66663 7.19304 2.66663 7.56641 2.66663H9.43307C9.80644 2.66663 9.99352 2.66663 10.1361 2.73929C10.2616 2.8032 10.3632 2.90512 10.4271 3.03056C10.4997 3.17317 10.5 3.35999 10.5 3.73336V5.33329M6.5 13.3333H10.5M10.5 13.3333L14.5 13.3334V6.40002C14.5 6.02666 14.4997 5.83983 14.4271 5.69722C14.3632 5.57178 14.262 5.46987 14.1365 5.40595C13.9939 5.33329 13.8067 5.33329 13.4333 5.33329H10.5M10.5 13.3333V5.33329" stroke="#E2E2E2" stroke-width="1.5" stroke-linecap="round" stroke-linejoin="round"/>
</svg>
