<svg xmlns="http://www.w3.org/2000/svg" width="16" height="16" viewBox="0 0 16 16" fill="none">
<path d="M11.5742 2.27523L13.3419 4.043C13.9783 4.6794 13.9783 5.66934 13.3419 6.30574C13.2005 6.44716 12.9177 6.44716 12.7762 6.30574L9.16999 2.6995C9.02857 2.55807 9.09928 2.34594 9.16999 2.27523C9.80639 1.63884 10.867 1.56812 11.5034 2.20452L11.5742 2.27523Z" fill="#E2E2E2"/>
<path d="M13.0004 12.2H7.40039L11.2004 8.39999C11.4004 8.19999 11.4004 7.89999 11.2004 7.69999L7.80039 4.29999C7.60039 4.09999 7.30039 4.09999 7.10039 4.29999L1.70039 9.79999C1.50039 9.99999 1.40039 10.2 1.40039 10.5V13.2C1.40039 13.8 1.80039 14.2 2.40039 14.2H13.1004C13.7004 14.2 14.1004 13.8 14.1004 13.2C14.1004 12.6 13.7004 12.2 13.1004 12.2H13.0004Z" fill="#E2E2E2"/>
</svg>