<svg xmlns="http://www.w3.org/2000/svg" width="24" height="25" viewBox="0 0 24 25" fill="none">
<path d="M22.5745 10.31C22.3945 9.75 21.9145 9.35 21.3245 9.28L15.5945 8.6L13.1845 3.37C12.9345 2.83 12.4145 2.5 11.8245 2.5C11.2345 2.5 10.7145 2.83 10.4645 3.37L8.05447 8.61L2.32447 9.29C1.73447 9.36 1.25447 9.75 1.07447 10.32C0.894469 10.88 1.04447 11.48 1.48447 11.88L5.71447 15.8L4.59447 21.46C4.47447 22.04 4.70447 22.62 5.18447 22.97C5.66447 23.32 6.28447 23.35 6.79447 23.06L11.8245 20.24L16.8545 23.06C17.0845 23.19 17.3345 23.25 17.5945 23.25C17.9045 23.25 18.2045 23.15 18.4745 22.96C18.9545 22.61 19.1845 22.04 19.0645 21.45L17.9445 15.79L22.1745 11.87C22.6045 11.47 22.7645 10.87 22.5845 10.31H22.5745Z" fill="#FE7211"/>
</svg>