<svg xmlns="http://www.w3.org/2000/svg" width="17" height="16" viewBox="0 0 17 16" fill="none">
<path d="M4.94423 12.4685L5.79087 11.82L5.7971 11.8154C5.9736 11.6802 6.06267 11.612 6.16205 11.5634C6.2512 11.5198 6.34627 11.488 6.44434 11.4688C6.55487 11.447 6.67002 11.447 6.90115 11.447H11.7239C12.345 11.447 12.6559 11.447 12.8933 11.3312C13.1024 11.2292 13.2725 11.0663 13.379 10.8661C13.5 10.6388 13.5 10.3414 13.5 9.74677V5.70054C13.5 5.10588 13.5 4.80811 13.379 4.58076C13.2725 4.38058 13.1021 4.21795 12.893 4.11595C12.6553 4 12.3446 4 11.7223 4H5.27789C4.65561 4 4.34423 4 4.10655 4.11595C3.89748 4.21795 3.72763 4.38058 3.6211 4.58076C3.5 4.80833 3.5 5.10647 3.5 5.70229V11.8041C3.5 12.371 3.5 12.6543 3.62137 12.7999C3.72691 12.9265 3.88691 13.0002 4.0561 13C4.25064 12.9998 4.48191 12.8227 4.94423 12.4685Z" stroke="#E2E2E2" stroke-width="1.5" stroke-linecap="round" stroke-linejoin="round"/>
</svg>