<svg xmlns="http://www.w3.org/2000/svg" width="24" height="12" viewBox="0 0 24 12" fill="none">
<path d="M13.3309 5.40955H21.7708C23.0008 5.40955 23.9987 4.41166 24 3.18163C24 1.95034 23.0021 0.952446 21.7708 0.952446H13.3309C12.0997 0.952446 11.1018 1.95034 11.1018 3.18163C11.1018 4.41166 12.1009 5.40955 13.3309 5.40955ZM2.22918 11.0866H11.9306C13.1606 11.0866 14.1585 10.0887 14.1598 8.85867C14.1598 7.62738 13.1619 6.62949 11.9306 6.62949H2.22918C0.997897 6.62949 0 7.62738 0 8.85867C0 10.0887 0.999159 11.0866 2.22918 11.0866ZM1.31329 5.32881H2.29731V1.73335H3.57149V0.860352H0.0391085V1.73083H1.31329V5.32881ZM4.85828 5.32881H5.8423V1.90114H5.85492L6.99033 5.32629H7.74727L8.92052 1.90114H8.93314V5.32629H9.91716V0.860352H8.4222L7.38772 3.77457H7.3751L6.34693 0.860352H4.85828V5.32881ZM19.23 7.88348C19.0988 7.60846 18.9033 7.37002 18.6598 7.1871C18.4075 7.00291 18.1211 6.87044 17.8171 6.79853C17.484 6.71527 17.1421 6.67238 16.799 6.67238H15.323V11.1383H16.9315C17.2544 11.1396 17.5761 11.0904 17.8839 10.9932C18.1741 10.9049 18.4466 10.7624 18.685 10.5744C18.9172 10.3864 19.1051 10.1493 19.2363 9.88054C19.3776 9.58155 19.4483 9.2548 19.442 8.92427C19.4521 8.56599 19.3801 8.20896 19.23 7.88348ZM18.2927 9.51468C18.2195 9.68247 18.1047 9.83007 17.9596 9.94361C17.8095 10.0546 17.6367 10.1328 17.455 10.1732C17.2481 10.2212 17.0362 10.2439 16.8242 10.2426H16.3133V7.59332H16.8936C17.0929 7.59332 17.291 7.61855 17.4828 7.6728C17.6594 7.72074 17.8246 7.80022 17.9722 7.90871C18.1072 8.01468 18.217 8.14967 18.2927 8.30358C18.3797 8.48146 18.4226 8.677 18.4188 8.87381C18.4239 9.09458 18.381 9.31283 18.2927 9.51468ZM23.923 9.49828C23.8789 9.37591 23.8108 9.26363 23.7237 9.16775C23.6367 9.07187 23.5332 8.9924 23.4184 8.93436C23.2923 8.87129 23.1573 8.82839 23.0185 8.80821V8.79559C23.2355 8.73377 23.4285 8.61014 23.5761 8.43983C23.7212 8.26195 23.7969 8.03865 23.7881 7.80905C23.7969 7.60341 23.7477 7.4003 23.643 7.22242C23.5484 7.07734 23.4172 6.96001 23.2645 6.87927C23.0992 6.79475 22.9214 6.73924 22.7372 6.71527C22.5442 6.68752 22.3499 6.67364 22.1543 6.67364H20.4891V11.1396H22.3183C22.5189 11.1396 22.7183 11.1181 22.9138 11.0765C23.1043 11.0387 23.2872 10.968 23.4537 10.8683C23.6114 10.7737 23.7452 10.645 23.8448 10.4899C23.9508 10.312 24.0038 10.1064 23.9962 9.89946C23.9962 9.76321 23.9735 9.62696 23.9268 9.49828H23.923ZM21.4731 7.51132H22.1417C22.2199 7.51132 22.2981 7.51889 22.3751 7.53403C22.4495 7.5479 22.5214 7.57187 22.5896 7.60594C22.6514 7.64 22.7044 7.6892 22.7435 7.74849C22.7864 7.81788 22.8066 7.89736 22.804 7.9781C22.8053 8.05758 22.7876 8.13579 22.7498 8.20518C22.7157 8.267 22.6678 8.31872 22.6085 8.35657C22.5479 8.39568 22.4798 8.42343 22.4092 8.43857C22.336 8.45623 22.2616 8.4638 22.1859 8.4638H21.4731V7.51132ZM22.9516 10.0344C22.9138 10.1 22.8608 10.1568 22.7977 10.1985C22.7334 10.2413 22.6615 10.2716 22.5858 10.2868C22.5101 10.3032 22.4331 10.312 22.3562 10.312H21.4731V9.30274H22.2174C22.3019 9.30274 22.3865 9.31031 22.4697 9.32166C22.558 9.33428 22.6451 9.35699 22.7283 9.39105C22.8053 9.42385 22.8734 9.47431 22.9264 9.53992C22.9819 9.61182 23.0097 9.7014 23.0059 9.79223C23.0097 9.87675 22.9907 9.96002 22.9516 10.0344Z" fill="url(#paint0_linear_1256_23754)"/>
<defs>
<linearGradient id="paint0_linear_1256_23754" x1="0" y1="5.99996" x2="24" y2="5.99996" gradientUnits="userSpaceOnUse">
<stop stop-color="#90CEA1"/>
<stop offset="0.56" stop-color="#3CBEC9"/>
<stop offset="1" stop-color="#00B3E5"/>
</linearGradient>
</defs>
</svg>