<svg xmlns="http://www.w3.org/2000/svg" width="32" height="15" viewBox="0 0 32 15" fill="none">
<path d="M17.7746 6.71282H29.0278C30.6678 6.71282 31.9983 5.38229 32 3.74225C32 2.10054 30.6695 0.770009 29.0278 0.770009H17.7746C16.1329 0.770009 14.8024 2.10054 14.8024 3.74225C14.8024 5.38229 16.1346 6.71282 17.7746 6.71282ZM2.97225 14.2822H15.9075C17.5475 14.2822 18.878 12.9517 18.8797 11.3116C18.8797 9.66992 17.5492 8.33939 15.9075 8.33939H2.97225C1.33053 8.33939 0 9.66992 0 11.3116C0 12.9517 1.33221 14.2822 2.97225 14.2822ZM1.75105 6.60516H3.06308V1.81122H4.76198V0.647217H0.0521447V1.80786H1.75105V6.60516ZM6.47771 6.60516H7.78974V2.03494H7.80656L9.32044 6.6018H10.3297L11.894 2.03494H11.9108V6.6018H13.2229V0.647217H11.2296L9.85029 4.53283H9.83347L8.46257 0.647217H6.47771V6.60516ZM25.64 10.0114C25.4651 9.64469 25.2044 9.32678 24.8797 9.08288C24.5433 8.83729 24.1615 8.66067 23.7561 8.56479C23.312 8.45378 22.8562 8.39659 22.3987 8.39659H20.4306V14.3512H22.5753C23.0059 14.3529 23.4348 14.2872 23.8452 14.1577C24.2321 14.04 24.5955 13.8499 24.9134 13.5993C25.2229 13.3486 25.4735 13.0324 25.6484 12.6741C25.8368 12.2755 25.931 11.8398 25.9226 11.3991C25.9361 10.9214 25.8402 10.4454 25.64 10.0114ZM24.3902 12.1863C24.2927 12.41 24.1396 12.6068 23.9462 12.7582C23.746 12.9063 23.5156 13.0105 23.2733 13.0644C22.9975 13.1283 22.7149 13.1586 22.4323 13.1569H21.751V9.62451H22.5248C22.7906 9.62451 23.0547 9.65815 23.3103 9.73048C23.5458 9.7944 23.7662 9.90037 23.963 10.045C24.143 10.1863 24.2893 10.3663 24.3902 10.5715C24.5063 10.8087 24.5635 11.0694 24.5585 11.3318C24.5652 11.6262 24.508 11.9172 24.3902 12.1863ZM31.8974 12.1645C31.8385 12.0013 31.7477 11.8516 31.6316 11.7238C31.5156 11.5959 31.3776 11.4899 31.2246 11.4126C31.0563 11.3285 30.8764 11.2713 30.6913 11.2444V11.2275C30.9807 11.1451 31.238 10.9803 31.4348 10.7532C31.6283 10.516 31.7292 10.2183 31.7174 9.91214C31.7292 9.63797 31.6636 9.36715 31.524 9.12998C31.3978 8.93653 31.2229 8.7801 31.0193 8.67245C30.799 8.55975 30.5618 8.48574 30.3162 8.45378C30.0589 8.41677 29.7998 8.39827 29.5391 8.39827H27.3188V14.3529H29.7578C30.0252 14.3529 30.291 14.3243 30.5517 14.2687C30.8057 14.2183 31.0496 14.1241 31.2717 13.9912C31.4819 13.865 31.6602 13.6935 31.7931 13.4866C31.9344 13.2494 32.005 12.9752 31.995 12.6994C31.995 12.5177 31.9647 12.336 31.9024 12.1645H31.8974ZM28.6308 9.51517H29.5223C29.6266 9.51517 29.7309 9.52527 29.8335 9.54545C29.9327 9.56395 30.0286 9.59591 30.1194 9.64133C30.2018 9.68675 30.2725 9.75235 30.3246 9.8314C30.3818 9.92392 30.4087 10.0299 30.4054 10.1375C30.4071 10.2435 30.3835 10.3478 30.3331 10.4403C30.2876 10.5227 30.2237 10.5917 30.1447 10.6422C30.0639 10.6943 29.9731 10.7313 29.8789 10.7515C29.7813 10.7751 29.6821 10.7851 29.5812 10.7851H28.6308V9.51517ZM30.6022 12.8793C30.5517 12.9668 30.4811 13.0425 30.397 13.098C30.3112 13.1552 30.2153 13.1956 30.1144 13.2158C30.0135 13.2376 29.9108 13.2494 29.8082 13.2494H28.6308V11.9037H29.6232C29.7359 11.9037 29.8486 11.9138 29.9596 11.929C30.0774 11.9458 30.1934 11.9761 30.3045 12.0215C30.4071 12.0652 30.4979 12.1325 30.5685 12.22C30.6426 12.3158 30.6796 12.4353 30.6745 12.5564C30.6796 12.6691 30.6543 12.7801 30.6022 12.8793Z" fill="url(#paint0_linear_1113_23047)"/>
<defs>
<linearGradient id="paint0_linear_1113_23047" x1="0" y1="7.50003" x2="32" y2="7.50003" gradientUnits="userSpaceOnUse">
<stop stop-color="#90CEA1"/>
<stop offset="0.56" stop-color="#3CBEC9"/>
<stop offset="1" stop-color="#00B3E5"/>
</linearGradient>
</defs>
</svg>