<svg xmlns="http://www.w3.org/2000/svg" width="45" height="44" viewBox="0 0 45 44" fill="none">
<path d="M41.4439 17.75C41.2139 17.03 40.5939 16.53 39.8439 16.44L28.9039 15.18L24.2639 5.11C23.9439 4.42 23.2839 4 22.5239 4C21.7639 4 21.1039 4.43 20.7839 5.11L16.2039 15.13L5.19386 16.44C4.44386 16.53 3.83386 17.03 3.59386 17.75C3.36386 18.47 3.56386 19.24 4.11386 19.75L12.2239 27.2L10.0639 38.07C9.91386 38.81 10.2039 39.55 10.8139 39.99C11.4239 40.44 12.2139 40.48 12.8739 40.11L22.4639 34.69L32.1339 40.11C32.4339 40.28 32.7539 40.36 33.0739 40.36C33.4639 40.36 33.8639 40.24 34.1939 39.99C34.8039 39.55 35.0939 38.81 34.9439 38.06L32.7539 27.27L40.8939 19.74C41.4539 19.23 41.6539 18.46 41.4139 17.74L41.4439 17.75Z" fill="#545250"/>
</svg>