<svg xmlns="http://www.w3.org/2000/svg" width="16" height="17" viewBox="0 0 16 17" fill="none">
<path d="M8.94787 6.625V6.95833H9.2812H12.8656H12.8731C13.3698 6.95833 13.739 7.40048 13.6545 7.88762C13.6545 7.88771 13.6545 7.8878 13.6545 7.8879L12.665 13.5108C12.665 13.511 12.6649 13.5111 12.6649 13.5113C12.5957 13.8932 12.2683 14.1667 11.8832 14.1667H5.33333V14.1664V14.1516V14.1367V14.1219V14.1071V14.0923V14.0775V14.0628V14.0481V14.0334V14.0187V14.0041V13.9895V13.9749V13.9603V13.9458V13.9313V13.9168V13.9023V13.8878V13.8734V13.859V13.8446V13.8302V13.8159V13.8015V13.7872V13.773V13.7587V13.7445V13.7302V13.716V13.7019V13.6877V13.6736V13.6595V13.6454V13.6313V13.6173V13.6032V13.5892V13.5752V13.5612V13.5473V13.5334V13.5195V13.5056V13.4917V13.4778V13.464V13.4502V13.4364V13.4226V13.4089V13.3951V13.3814V13.3677V13.354V13.3403V13.3267V13.3131V13.2995V13.2859V13.2723V13.2587V13.2452V13.2317V13.2182V13.2047V13.1912V13.1778V13.1643V13.1509V13.1375V13.1241V13.1107V13.0974V13.084V13.0707V13.0574V13.0441V13.0309V13.0176V13.0044V12.9911V12.9779V12.9647V12.9516V12.9384V12.9252V12.9121V12.899V12.8859V12.8728V12.8597V12.8467V12.8336V12.8206V12.8076V12.7946V12.7816V12.7686V12.7556V12.7427V12.7298V12.7168V12.7039V12.691V12.6782V12.6653V12.6524V12.6396V12.6268V12.6139V12.6011V12.5883V12.5756V12.5628V12.55V12.5373V12.5246V12.5118V12.4991V12.4864V12.4738V12.4611V12.4484V12.4358V12.4231V12.4105V12.3979V12.3853V12.3727V12.3601V12.3475V12.335V12.3224V12.3099V12.2973V12.2848V12.2723V12.2598V12.2473V12.2348V12.2223V12.2098V12.1974V12.1849V12.1725V12.1601V12.1476V12.1352V12.1228V12.1104V12.098V12.0857V12.0733V12.0609V12.0486V12.0362V12.0239V12.0116V11.9992V11.9869V11.9746V11.9623V11.95V11.9377V11.9254V11.9132V11.9009V11.8886V11.8764V11.8641V11.8519V11.8396V11.8274V11.8152V11.803V11.7908V11.7786V11.7664V11.7542V11.742V11.7298V11.7176V11.7054V11.6933V11.6811V11.6689V11.6568V11.6446V11.6325V11.6203V11.6082V11.5961V11.5839V11.5718V11.5597V11.5476V11.5355V11.5234V11.5112V11.4991V11.487V11.4749V11.4629V11.4508V11.4387V11.4266V11.4145V11.4024V11.3903V11.3783V11.3662V11.3541V11.342V11.33V11.3179V11.3058V11.2938V11.2817V11.2697V11.2576V11.2455V11.2335V11.2214V11.2094V11.1973V11.1853V11.1732V11.1612V11.1491V11.1371V11.125V11.1129V11.1009V11.0888V11.0768V11.0647V11.0527V11.0406V11.0286V11.0165V11.0045V10.9924V10.9803V10.9683V10.9562V10.9442V10.9321V10.92V10.908V10.8959V10.8838V10.8717V10.8597V10.8476V10.8355V10.8234V10.8113V10.7992V10.7871V10.7751V10.763V10.7509V10.7388V10.7266V10.7145V10.7024V10.6903V10.6782V10.6661V10.6539V10.6418V10.6297V10.6175V10.6054V10.5932V10.5811V10.5689V10.5567V10.5446V10.5324V10.5202V10.508V10.4958V10.4836V10.4714V10.4592V10.447V10.4348V10.4226V10.4104V10.3981V10.3859V10.3736V10.3614V10.3491V10.3368V10.3246V10.3123V10.3V10.2877V10.2754V10.2631V10.2508V10.2384V10.2261V10.2138V10.2014V10.1891V10.1767V10.1643V10.152V10.1396V10.1272V10.1148V10.1024V10.0899V10.0775V10.0651V10.0526V10.0402V10.0277V10.0152V10.0027V9.99023V9.97772V9.96521V9.95268V9.94015V9.9276V9.91505V9.90248V9.88991V9.87732V9.86472V9.85212V9.8395V9.82687V9.81423V9.80158V9.78892V9.77624V9.76356V9.75086V9.73815V9.72543V9.7127V9.69996V9.6872V9.67444V9.66166V9.64887V9.63606V9.62324V9.61041V9.59757V9.58472V9.57185V9.55897V9.54607V9.53317V9.52025V9.50731V9.49436V9.4814V9.46843V9.45544V9.44243V9.42942V9.41639V9.40334V9.39028V9.3772V9.36412V9.35101V9.33789V9.32476V9.31161V9.29845V9.28527V9.27207V9.25886V9.24564V9.2324V9.21914V9.20587V9.19258V9.17928V9.16596V9.15262V9.13927V9.1259V9.11251V9.09911V9.08569V9.07225V9.0588V9.04533V9.03184V9.01833V9.00481V8.99127V8.97771V8.96414V8.95054V8.93693V8.9233V8.90966V8.89599V8.88231V8.86861V8.85488V8.84115V8.82739V8.81361V8.79981V8.786V8.77216V8.75831V8.74444V8.73055V8.71663V8.7027V8.68875V8.67478V8.66079V8.64678V8.63275V8.6187V8.60462V8.59053V8.57642V8.56228V8.54813V8.53395V8.51976V8.50554V8.4913V8.47704V8.46276V8.44846V8.43413V8.41978V8.40542V8.39103V8.37661V8.36218V8.34772V8.33324V8.31874V8.30422V8.28967V8.2751V8.26051V8.24589V8.23125V8.21659V8.2019V8.1872V8.17246V8.15771V8.14293V8.12813V8.1133V8.09845V8.08357V8.06867V8.05375V8.0388V8.02383V8.00883V7.99381V7.97876V7.96369V7.94859V7.93347V7.91832V7.90315V7.88795V7.87273V7.85748V7.8422V7.8269V7.81774L7.33798 3.08884C7.40643 2.93152 7.55743 2.83333 7.72148 2.83333H7.78897C8.42109 2.83333 8.94787 3.35795 8.94787 4V6.625ZM3.16667 14.1654C2.69756 14.1408 2.33333 13.7588 2.33333 13.2925V8.965C2.33333 8.49768 2.7054 8.11003 3.16667 8.08465V14.1654Z" fill="#999490" stroke="#999490" stroke-width="0.666667"/>
</svg>