<?xml version="1.0" encoding="UTF-8"?>
<svg id="Layer_2" data-name="Layer 2" xmlns="http://www.w3.org/2000/svg" viewBox="0 0 299.21 51.06">
  <defs>
    <style>
      .cls-1 {
        fill: #efe9df;
      }

      .cls-1, .cls-2 {
        stroke-width: 0px;
      }

      .cls-2 {
        fill: #fe7211;
      }
    </style>
  </defs>
  <g id="Layer_1-2" data-name="Layer 1">
    <g>
      <path class="cls-1" d="M245.55,50.64c-3.33,0-6.05-.56-8.13-1.69-2.09-1.13-3.6-2.65-4.54-4.58-.94-1.92-1.41-4.09-1.41-6.48V3.84c0-.91.67-1.68,1.57-1.82l11.19-1.64c1.11-.16,2.1.7,2.1,1.82v33.65c0,1.08.35,1.91,1.06,2.5.71.59,1.62.88,2.75.88.49,0,.98-.05,1.46-.16,1.05-.23,2.05.53,2.16,1.6l.68,6.34c.08.75-.3,1.48-.96,1.83-.92.48-1.99.87-3.21,1.17-1.74.42-3.31.63-4.72.63Z"/>
      <path class="cls-1" d="M272.56,50.07h-11.3c-.98,0-1.78-.8-1.78-1.78V5.2c0-.88.65-1.63,1.52-1.76l11.3-1.66c1.08-.16,2.04.68,2.04,1.76v18.35c0,1.5,1.74,2.33,2.91,1.38l12.23-9.94c.78-.63,1.92-.5,2.53.29l5.43,6.99c.59.76.47,1.84-.26,2.46l-7.79,6.52c-.51.42-.75,1.1-.6,1.75.64,2.78,1.53,4.76,2.66,5.95,1.27,1.34,2.91,2.01,4.93,2.01.26,0,.54-.01.84-.04,1.12-.1,2.08.81,1.97,1.93l-.71,7.67c-.08.82-.71,1.49-1.52,1.6-.35.05-.68.08-1,.1-.7.05-1.39.07-2.04.07-4.65,0-8.32-1.12-11.02-3.35-2.16-1.79-3.87-4.25-5.11-7.38-.46-1.15-1.89-1.53-2.83-.72h0c-.39.34-.62.83-.62,1.35v7.76c0,.98-.8,1.78-1.78,1.78Z"/>
      <path class="cls-1" d="M182.54,40.22c-.1-.9-.98-1.43-1.85-1.21-.58.15-1.15.22-1.73.22-1.13,0-2.04-.29-2.75-.88-.7-.59-1.06-1.42-1.06-2.5v-8.22c0-.79.64-1.43,1.43-1.43h5.32c.79,0,1.43-.64,1.43-1.43v-8.56c0-.79-.64-1.43-1.43-1.43h-5.32c-.79,0-1.43-.64-1.43-1.43V5.09c0-.79-.64-1.43-1.43-1.43h-5c-.51,0-.98.27-1.23.71l-5.71,9.7c-.26.44-.73.71-1.23.71h-3.52c-.79,0-1.43.64-1.43,1.43v8.56c0,.79.64,1.43,1.43,1.43h1.85c.79,0,1.43.64,1.43,1.43v10.26c0,2.39.47,4.55,1.41,6.48.94,1.93,2.45,3.45,4.54,4.58,2.09,1.13,4.8,1.69,8.13,1.69,1.41,0,2.98-.21,4.72-.63,1.33-.32,2.48-.76,3.45-1.3.51-.29.82-.84.75-1.42l-.76-7.07Z"/>
      <g>
        <path class="cls-2" d="M206.83,50.63h0s17.54.01,17.54.01c.66,0,1.2-.54,1.2-1.2v-17.74c0,10.38-8.39,18.83-18.75,18.94Z"/>
        <path class="cls-1" d="M204.47,12.86c-8.67.97-15.69,7.99-16.66,16.66-1.27,11.41,7.66,21.12,18.83,21.12.07,0,.13,0,.2-.01,10.35-.11,18.75-8.56,18.75-18.94,0-11.16-9.7-20.1-21.11-18.83ZM206.83,39.39c-.07,0-.13.01-.2.01-4.8,0-8.58-4.4-7.53-9.38.61-2.91,2.97-5.26,5.88-5.87,4.97-1.04,9.37,2.74,9.37,7.54,0,4.18-3.35,7.59-7.51,7.7Z"/>
      </g>
      <path class="cls-1" d="M57.22,50.64c-2.96,0-5.35-.53-7.18-1.59-1.83-1.06-3.17-2.49-4.01-4.3-.84-1.81-1.26-3.84-1.26-6.09v-19.17c0-.86.7-1.56,1.56-1.56h10.86c.86,0,1.56.7,1.56,1.56v17.25c0,1.02.3,1.8.89,2.35s1.31.83,2.15.83c.33,0,.66-.04.99-.11.92-.2,1.81.44,1.89,1.38l.49,6.22c.05.6-.26,1.18-.78,1.48-.82.48-1.8.86-2.92,1.15-1.55.4-2.96.6-4.24.6Z"/>
      <path class="cls-2" d="M52.32.02c-4.28-.28-7.8,3.25-7.53,7.53.25,3.77,3.58,6.59,7.36,6.59h5.2c.86,0,1.56-.7,1.56-1.56v-5.2c0-3.77-2.83-7.11-6.59-7.35Z"/>
      <g>
        <path class="cls-2" d="M4.98,42.78c-1.51-1.89-2.66-4.03-3.49-6.42v12.98c0,.77.74,1.39,1.64,1.39h16.1c-1.55-.24-3.04-.6-4.46-1.09-4-1.4-7.27-3.69-9.8-6.86Z"/>
        <path class="cls-1" d="M40.59,43.98l-1.9-5.74c-.46-1.38-2.12-2.02-3.52-1.38-.64.29-1.22.53-1.76.72-1.2.43-2.54.74-4.03.94-3.77.5-6.85-.12-9.24-1.87-2.39-1.75-3.82-4.41-4.3-8-.51-3.8.19-6.92,2.09-9.35,1.9-2.43,4.76-3.9,8.58-4.41,1.3-.17,2.71-.22,4.21-.13.53.03,1.06.08,1.58.16,1.5.21,2.89-.85,2.96-2.28l.28-6.13c.05-1.03-.61-1.98-1.64-2.32-3.13-1.02-7-1.23-11.61-.61-4.93.66-9.16,2.28-12.67,4.86-3.52,2.58-6.11,5.83-7.79,9.75C.15,22.1-.37,26.42.26,31.14c.25,1.86.66,3.6,1.23,5.23.83,2.39,1.98,4.53,3.49,6.42,2.53,3.18,5.8,5.46,9.8,6.86,1.42.5,2.91.86,4.46,1.09,2.81.43,5.84.43,9.08,0,4.13-.55,7.87-1.89,11.22-4.02.95-.6,1.39-1.72,1.05-2.74Z"/>
      </g>
      <path class="cls-1" d="M108.9,36.18v-3.55c0-10.94-9.15-19.78-20.2-19.26-10.39.48-18.37,9.47-18.37,19.88v13.07h0v3.09c0,.68.56,1.23,1.23,1.23h10.17c.68,0,1.23-.56,1.23-1.23v-13.22s0,0,0,0v-3.2c0-3.5,2.55-6.65,6.03-6.96,3.94-.36,7.26,2.75,7.26,6.61v13.68h0v3.09c0,.68.56,1.23,1.23,1.23h10.17c.68,0,1.23-.56,1.23-1.23v-13.22s0,0,0,0Z"/>
      <path class="cls-1" d="M145.93,34.6h3c1.01,0,1.88-.77,1.95-1.78.03-.37.04-.75.04-1.13,0-11.16-9.7-20.1-21.11-18.83-8.67.97-15.69,7.99-16.66,16.66-1.27,11.41,7.66,21.11,18.83,21.11.07,0,.13,0,.2-.01,6.87-.07,12.87-3.82,16.13-9.37.57-.97-.08-2.21-1.2-2.35l-9.61-1.18c-.45-.05-.89.03-1.29.24-.93.5-2.77,1.38-4.04,1.41-.07,0-.13.01-.2.01-2.9,0-5.43-1.61-6.74-3.99-.2-.36.05-.81.47-.81h20.23ZM130.31,24.15c3.55-.75,6.81.98,8.38,3.78.21.38-.05.86-.49.86h-12.44c-.45,0-.73-.49-.51-.88,1.06-1.89,2.9-3.3,5.06-3.75Z"/>
    </g>
  </g>
</svg>