<svg xmlns="http://www.w3.org/2000/svg" width="16" height="17" viewBox="0 0 16 17" fill="none">
  <path d="M13.9378 6.97C13.7778 6.51 13.3878 6.18 12.8978 6.12L10.2678 5.79L9.14776 3.25C8.94776 2.79 8.49776 2.5 7.99776 2.5C7.49776 2.5 7.05776 2.79 6.84776 3.25L5.72776 5.79L3.09776 6.12C2.61776 6.18 2.21776 6.51 2.06776 6.97C1.90776 7.44 2.03776 7.95 2.38776 8.29L4.36775 10.21L3.83776 12.99C3.74776 13.48 3.94775 13.98 4.34775 14.27C4.55775 14.42 4.81775 14.5 5.06775 14.5C5.28776 14.5 5.50776 14.44 5.69776 14.33L7.99776 12.98L10.2978 14.33C10.7178 14.58 11.2478 14.55 11.6478 14.28C12.0578 13.99 12.2578 13.49 12.1678 13L11.6378 10.22L13.6178 8.3C13.9678 7.96 14.0978 7.45 13.9378 6.98V6.97Z" fill="#545250"/>
</svg>