<svg xmlns="http://www.w3.org/2000/svg" width="24" height="24" viewBox="0 0 24 24" fill="none">
<path d="M22.5745 9.81C22.3945 9.25 21.9145 8.85 21.3245 8.78L15.5945 8.1L13.1845 2.87C12.9345 2.33 12.4145 2 11.8245 2C11.2345 2 10.7145 2.33 10.4645 2.87L8.05447 8.11L2.32447 8.79C1.73447 8.86 1.25447 9.25 1.07447 9.82C0.894469 10.38 1.04447 10.98 1.48447 11.38L5.71447 15.3L4.59447 20.96C4.47447 21.54 4.70447 22.12 5.18447 22.47C5.66447 22.82 6.28447 22.85 6.79447 22.56L11.8245 19.74L16.8545 22.56C17.0845 22.69 17.3345 22.75 17.5945 22.75C17.9045 22.75 18.2045 22.65 18.4745 22.46C18.9545 22.11 19.1845 21.54 19.0645 20.95L17.9445 15.29L22.1745 11.37C22.6045 10.97 22.7645 10.37 22.5845 9.81H22.5745Z" fill="#736F6C"/>
</svg>