<svg xmlns="http://www.w3.org/2000/svg" width="16" height="16" viewBox="0 0 16 16" fill="none">
  <path d="M13.9378 6.47C13.7778 6.01 13.3878 5.68 12.8978 5.62L10.2678 5.29L9.14776 2.75C8.94776 2.29 8.49776 2 7.99776 2C7.49776 2 7.05776 2.29 6.84776 2.75L5.72776 5.29L3.09776 5.62C2.61776 5.68 2.21776 6.01 2.06776 6.47C1.90776 6.94 2.03776 7.45 2.38776 7.79L4.36775 9.71L3.83776 12.49C3.74776 12.98 3.94775 13.48 4.34775 13.77C4.55775 13.92 4.81775 14 5.06775 14C5.28776 14 5.50776 13.94 5.69776 13.83L7.99776 12.48L10.2978 13.83C10.7178 14.08 11.2478 14.05 11.6478 13.78C12.0578 13.49 12.2578 12.99 12.1678 12.5L11.6378 9.72L13.6178 7.8C13.9678 7.46 14.0978 6.95 13.9378 6.48V6.47Z" fill="#545250"/>
  <path fill-rule="evenodd" clip-rule="evenodd" d="M8 2C7.99925 2 7.9985 2 7.99776 2C7.49776 2 7.05776 2.29 6.84776 2.75L5.72776 5.29L3.09776 5.62C2.61776 5.68 2.21776 6.01 2.06776 6.47C1.90776 6.94 2.03776 7.45 2.38776 7.79L4.36775 9.71L3.83776 12.49C3.74776 12.98 3.94775 13.48 4.34775 13.77C4.55775 13.92 4.81775 14 5.06775 14C5.28776 14 5.50776 13.94 5.69776 13.83L7.99776 12.48L8 12.4813V2ZM14 7.00536C14.0073 6.92767 14.0074 6.84895 14 6.77017V7.00536Z" fill="#FE7211"/>
</svg>