<svg xmlns="http://www.w3.org/2000/svg" width="44" height="44" viewBox="0 0 44 44" fill="none">
  <path d="M40.9439 17.75C40.7139 17.03 40.0939 16.53 39.3439 16.44L28.4039 15.18L23.7639 5.11C23.4439 4.42 22.7839 4 22.0239 4C21.2639 4 20.6039 4.43 20.2839 5.11L15.7039 15.13L4.69386 16.44C3.94386 16.53 3.33386 17.03 3.09386 17.75C2.86386 18.47 3.06386 19.24 3.61386 19.75L11.7239 27.2L9.56386 38.07C9.41386 38.81 9.70386 39.55 10.3139 39.99C10.9239 40.44 11.7139 40.48 12.3739 40.11L21.9639 34.69L31.6339 40.11C31.9339 40.28 32.2539 40.36 32.5739 40.36C32.9639 40.36 33.3639 40.24 33.6939 39.99C34.3039 39.55 34.5939 38.81 34.4439 38.06L32.2539 27.27L40.3939 19.74C40.9539 19.23 41.1539 18.46 40.9139 17.74L40.9439 17.75Z" fill="#FE7211"/>
</svg>