<svg xmlns="http://www.w3.org/2000/svg" width="28" height="28" viewBox="0 0 28 28" fill="none">
  <path d="M26.8584 11C26.6684 10.41 26.1584 9.99 25.5384 9.92L18.7684 9.12L15.9084 2.92C15.6484 2.35 15.0984 2 14.4684 2C13.8484 2 13.2884 2.35 13.0284 2.92L10.1684 9.11L3.39839 9.91C2.77839 9.98 2.26839 10.4 2.07839 10.99C1.88839 11.58 2.04839 12.22 2.50839 12.64L7.51839 17.27L6.18839 23.96C6.06839 24.57 6.30839 25.18 6.80839 25.55C7.31839 25.92 7.96839 25.95 8.50839 25.65L14.4584 22.32L20.4084 25.65C20.6484 25.79 20.9184 25.85 21.1784 25.85C21.5084 25.85 21.8284 25.75 22.1084 25.54C22.6184 25.17 22.8584 24.56 22.7284 23.95L21.3984 17.26L26.4084 12.63C26.8684 12.21 27.0284 11.57 26.8384 10.98L26.8584 11Z" fill="#2E2C2B"/>
  <path fill-rule="evenodd" clip-rule="evenodd" d="M14 2.06934C13.5768 2.19771 13.2206 2.49887 13.0284 2.92029L10.1684 9.11029L3.39839 9.91028C2.77839 9.98029 2.26839 10.4003 2.07839 10.9903C1.88839 11.5803 2.04839 12.2203 2.50839 12.6403L7.51839 17.2703L6.18839 23.9603C6.06839 24.5703 6.30839 25.1803 6.80839 25.5503C7.31839 25.9203 7.96839 25.9503 8.50839 25.6503L14 22.5768V2.06934Z" fill="#FE7211"/>
</svg>