<svg xmlns="http://www.w3.org/2000/svg" viewBox="0 0 24 11" fill="none">
  <path d="M13.3309 4.5492H21.7708C23.0008 4.5492 23.9987 3.5513 24 2.32128C24 1.08999 23.0021 0.0920942 21.7708 0.0920942H13.3309C12.0997 0.0920942 11.1018 1.08999 11.1018 2.32128C11.1018 3.5513 12.1009 4.5492 13.3309 4.5492ZM2.22918 10.2262H11.9306C13.1606 10.2262 14.1585 9.22834 14.1598 7.99832C14.1598 6.76703 13.1619 5.76913 11.9306 5.76913H2.22918C0.997897 5.76913 0 6.76703 0 7.99832C0 9.22834 0.999159 10.2262 2.22918 10.2262ZM1.31329 4.46846H2.29731V0.873003H3.57149V0H0.0391085V0.870479H1.31329V4.46846ZM4.85828 4.46846H5.8423V1.04079H5.85492L6.99033 4.46594H7.74727L8.92052 1.04079H8.93314V4.46594H9.91716V0H8.4222L7.38772 2.91421H7.3751L6.34693 0H4.85828V4.46846ZM19.23 7.02313C19.0988 6.74811 18.9033 6.50967 18.6598 6.32675C18.4075 6.14256 18.1211 6.01009 17.8171 5.93818C17.484 5.85492 17.1421 5.81203 16.799 5.81203H15.323V10.278H16.9315C17.2544 10.2792 17.5761 10.23 17.8839 10.1329C18.1741 10.0446 18.4466 9.90202 18.685 9.71405C18.9172 9.52607 19.1051 9.2889 19.2363 9.02019C19.3776 8.72119 19.4483 8.39445 19.442 8.06392C19.4521 7.70563 19.3801 7.34861 19.23 7.02313ZM18.2927 8.65433C18.2195 8.82212 18.1047 8.96972 17.9596 9.08326C17.8095 9.19428 17.6367 9.2725 17.455 9.31287C17.2481 9.36081 17.0362 9.38352 16.8242 9.38225H16.3133V6.73297H16.8936C17.0929 6.73297 17.291 6.7582 17.4828 6.81245C17.6594 6.86039 17.8246 6.93987 17.9722 7.04836C18.1072 7.15433 18.217 7.28932 18.2927 7.44323C18.3797 7.62111 18.4226 7.81665 18.4188 8.01346C18.4239 8.23423 18.381 8.45248 18.2927 8.65433ZM23.923 8.63793C23.8789 8.51556 23.8108 8.40328 23.7237 8.3074C23.6367 8.21152 23.5332 8.13204 23.4184 8.07401C23.2923 8.01093 23.1573 7.96804 23.0185 7.94786V7.93524C23.2355 7.87342 23.4285 7.74979 23.5761 7.57948C23.7212 7.4016 23.7969 7.1783 23.7881 6.9487C23.7969 6.74306 23.7477 6.53995 23.643 6.36207C23.5484 6.21699 23.4172 6.09966 23.2645 6.01892C23.0992 5.9344 22.9214 5.87889 22.7372 5.85492C22.5442 5.82717 22.3499 5.81329 22.1543 5.81329H20.4891V10.2792H22.3183C22.5189 10.2792 22.7183 10.2578 22.9138 10.2161C23.1043 10.1783 23.2872 10.1077 23.4537 10.008C23.6114 9.91337 23.7452 9.78469 23.8448 9.62952C23.9508 9.45164 24.0038 9.24601 23.9962 9.03911C23.9962 8.90286 23.9735 8.76661 23.9268 8.63793H23.923ZM21.4731 6.65097H22.1417C22.2199 6.65097 22.2981 6.65854 22.3751 6.67368C22.4495 6.68755 22.5214 6.71152 22.5896 6.74558C22.6514 6.77965 22.7044 6.82885 22.7435 6.88814C22.7864 6.95753 22.8066 7.03701 22.804 7.11775C22.8053 7.19722 22.7876 7.27544 22.7498 7.34483C22.7157 7.40664 22.6678 7.45837 22.6085 7.49621C22.5479 7.53532 22.4798 7.56308 22.4092 7.57822C22.336 7.59588 22.2616 7.60345 22.1859 7.60345H21.4731V6.65097ZM22.9516 9.1741C22.9138 9.2397 22.8608 9.29647 22.7977 9.3381C22.7334 9.38099 22.6615 9.41127 22.5858 9.42641C22.5101 9.44281 22.4331 9.45164 22.3562 9.45164H21.4731V8.44239H22.2174C22.3019 8.44239 22.3865 8.44996 22.4697 8.46131C22.558 8.47393 22.6451 8.49664 22.7283 8.5307C22.8053 8.5635 22.8734 8.61396 22.9264 8.67956C22.9819 8.75147 23.0097 8.84104 23.0059 8.93188C23.0097 9.0164 22.9907 9.09966 22.9516 9.1741Z" fill="url(#paint0_linear_1996_34108)"/>
  <defs>
    <linearGradient id="paint0_linear_1996_34108" x1="0" y1="5.13961" x2="24" y2="5.13961" gradientUnits="userSpaceOnUse">
      <stop stop-color="#90CEA1"/>
      <stop offset="0.56" stop-color="#3CBEC9"/>
      <stop offset="1" stop-color="#00B3E5"/>
    </linearGradient>
  </defs>
</svg>