<svg xmlns="http://www.w3.org/2000/svg" width="32" height="14" viewBox="0 0 32 14" fill="none">
  <path d="M17.7746 6.0656H29.0278C30.6678 6.0656 31.9983 4.73507 32 3.09504C32 1.45332 30.6695 0.122792 29.0278 0.122792H17.7746C16.1329 0.122792 14.8024 1.45332 14.8024 3.09504C14.8024 4.73507 16.1346 6.0656 17.7746 6.0656ZM2.97225 13.635H15.9075C17.5475 13.635 18.878 12.3045 18.8797 10.6644C18.8797 9.02271 17.5492 7.69218 15.9075 7.69218H2.97225C1.33053 7.69218 0 9.02271 0 10.6644C0 12.3045 1.33221 13.635 2.97225 13.635ZM1.75105 5.95795H3.06308V1.164H4.76198V0H0.0521447V1.16064H1.75105V5.95795ZM6.47771 5.95795H7.78974V1.38772H7.80656L9.32044 5.95458H10.3297L11.894 1.38772H11.9108V5.95458H13.2229V0H11.2296L9.85029 3.88562H9.83347L8.46257 0H6.47771V5.95795ZM25.64 9.36417C25.4651 8.99748 25.2044 8.67956 24.8797 8.43566C24.5433 8.19008 24.1615 8.01346 23.7561 7.91758C23.312 7.80656 22.8562 7.74937 22.3987 7.74937H20.4306V13.704H22.5753C23.0059 13.7056 23.4348 13.64 23.8452 13.5105C24.2321 13.3928 24.5955 13.2027 24.9134 12.9521C25.2229 12.7014 25.4735 12.3852 25.6484 12.0269C25.8368 11.6283 25.931 11.1926 25.9226 10.7519C25.9361 10.2742 25.8402 9.79815 25.64 9.36417ZM24.3902 11.5391C24.2927 11.7628 24.1396 11.9596 23.9462 12.111C23.746 12.259 23.5156 12.3633 23.2733 12.4172C22.9975 12.4811 22.7149 12.5114 22.4323 12.5097H21.751V8.97729H22.5248C22.7906 8.97729 23.0547 9.01093 23.3103 9.08326C23.5458 9.14718 23.7662 9.25315 23.963 9.39781C24.143 9.53911 24.2893 9.71909 24.3902 9.92431C24.5063 10.1615 24.5635 10.4222 24.5585 10.6846C24.5652 10.979 24.508 11.27 24.3902 11.5391ZM31.8974 11.5172C31.8385 11.3541 31.7477 11.2044 31.6316 11.0765C31.5156 10.9487 31.3776 10.8427 31.2246 10.7653C31.0563 10.6812 30.8764 10.6241 30.6913 10.5971V10.5803C30.9807 10.4979 31.238 10.3331 31.4348 10.106C31.6283 9.8688 31.7292 9.57107 31.7174 9.26493C31.7292 8.99075 31.6636 8.71993 31.524 8.48276C31.3978 8.28932 31.2229 8.13288 31.0193 8.02523C30.799 7.91253 30.5618 7.83852 30.3162 7.80656C30.0589 7.76955 29.7998 7.75105 29.5391 7.75105H27.3188V13.7056H29.7578C30.0252 13.7056 30.291 13.677 30.5517 13.6215C30.8057 13.5711 31.0496 13.4769 31.2717 13.344C31.4819 13.2178 31.6602 13.0463 31.7931 12.8394C31.9344 12.6022 32.005 12.328 31.995 12.0521C31.995 11.8705 31.9647 11.6888 31.9024 11.5172H31.8974ZM28.6308 8.86796H29.5223C29.6266 8.86796 29.7309 8.87805 29.8335 8.89823C29.9327 8.91674 30.0286 8.9487 30.1194 8.99411C30.2018 9.03953 30.2725 9.10513 30.3246 9.18419C30.3818 9.2767 30.4087 9.38267 30.4054 9.49033C30.4071 9.5963 30.3835 9.70059 30.3331 9.7931C30.2876 9.87553 30.2237 9.94449 30.1447 9.99495C30.0639 10.0471 29.9731 10.0841 29.8789 10.1043C29.7813 10.1278 29.6821 10.1379 29.5812 10.1379H28.6308V8.86796ZM30.6022 12.2321C30.5517 12.3196 30.4811 12.3953 30.397 12.4508C30.3112 12.508 30.2153 12.5484 30.1144 12.5685C30.0135 12.5904 29.9108 12.6022 29.8082 12.6022H28.6308V11.2565H29.6232C29.7359 11.2565 29.8486 11.2666 29.9596 11.2817C30.0774 11.2986 30.1934 11.3288 30.3045 11.3743C30.4071 11.418 30.4979 11.4853 30.5685 11.5728C30.6426 11.6686 30.6796 11.7881 30.6745 11.9092C30.6796 12.0219 30.6543 12.1329 30.6022 12.2321Z" fill="url(#paint0_linear_1996_34109)"/>
  <defs>
    <linearGradient id="paint0_linear_1996_34109" x1="0" y1="6.85282" x2="32" y2="6.85282" gradientUnits="userSpaceOnUse">
      <stop stop-color="#90CEA1"/>
      <stop offset="0.56" stop-color="#3CBEC9"/>
      <stop offset="1" stop-color="#00B3E5"/>
    </linearGradient>
  </defs>
</svg>