<?xml version="1.0" encoding="UTF-8"?>
<svg id="Layer_2" data-name="Layer 2" xmlns="http://www.w3.org/2000/svg" viewBox="0 0 58.91 51.06">
  <defs>
    <style>
      .cls-1 {
        fill: #efe9df;
      }

      .cls-1, .cls-2 {
        stroke-width: 0px;
      }

      .cls-2 {
        fill: #fe7211;
      }
    </style>
  </defs>
  <g id="Layer_1-2" data-name="Layer 1">
    <g>
      <path class="cls-2" d="M52.32.02c-4.28-.28-7.8,3.25-7.53,7.53.25,3.77,3.58,6.59,7.36,6.59h5.2c.86,0,1.56-.7,1.56-1.56v-5.2c0-3.77-2.83-7.11-6.59-7.35Z"/>
      <g>
        <path class="cls-2" d="M4.98,42.78c-1.51-1.89-2.66-4.03-3.49-6.42v12.98c0,.77.74,1.39,1.64,1.39h16.1c-1.55-.24-3.04-.6-4.46-1.09-4-1.4-7.27-3.69-9.8-6.86Z"/>
        <path class="cls-1" d="M40.59,43.98l-1.9-5.74c-.46-1.38-2.12-2.02-3.52-1.38-.64.29-1.22.53-1.76.72-1.2.43-2.54.74-4.03.94-3.77.5-6.85-.12-9.24-1.87-2.39-1.75-3.82-4.41-4.3-8-.51-3.8.19-6.92,2.09-9.35,1.9-2.43,4.76-3.9,8.58-4.41,1.3-.17,2.71-.22,4.21-.13.53.03,1.06.08,1.58.16,1.5.21,2.89-.85,2.96-2.28l.28-6.13c.05-1.03-.61-1.98-1.64-2.32-3.13-1.02-7-1.23-11.61-.61-4.93.66-9.16,2.28-12.67,4.86-3.52,2.58-6.11,5.83-7.79,9.75C.15,22.1-.37,26.42.26,31.14c.25,1.86.66,3.6,1.23,5.23.83,2.39,1.98,4.53,3.49,6.42,2.53,3.18,5.8,5.46,9.8,6.86,1.42.5,2.91.86,4.46,1.09,2.81.43,5.84.43,9.08,0,4.13-.55,7.87-1.89,11.22-4.02.95-.6,1.39-1.72,1.05-2.74Z"/>
      </g>
    </g>
  </g>
</svg>