<svg xmlns="http://www.w3.org/2000/svg" width="16" height="16" viewBox="0 0 16 16" fill="none">
  <path d="M8.00033 5.33308L2.66699 10.6664V13.3331L5.33366 13.3331L10.667 7.99974M8.00033 5.33308L9.91274 3.42065L9.91389 3.41952C10.1772 3.15626 10.309 3.0244 10.461 2.97501C10.5949 2.93151 10.7392 2.93151 10.873 2.97501C11.0249 3.02436 11.1567 3.15608 11.4195 3.41896L12.5794 4.57882C12.8434 4.84283 12.9755 4.9749 13.0249 5.12712C13.0684 5.26101 13.0684 5.40524 13.0249 5.53914C12.9755 5.69125 12.8436 5.82312 12.58 6.08675L12.5794 6.08732L10.667 7.99974M8.00033 5.33308L10.667 7.99974" stroke="#E9E9E9" stroke-width="1.5" stroke-linecap="round" stroke-linejoin="round"/>
</svg>