<svg xmlns="http://www.w3.org/2000/svg" width="16" height="16" viewBox="0 0 16 16" fill="none">
  <path d="M11.5742 2.27532L13.3419 4.04309C13.9783 4.67949 13.9783 5.66944 13.3419 6.30583C13.2005 6.44725 12.9177 6.44725 12.7762 6.30583L9.16999 2.69959C9.02857 2.55817 9.09928 2.34603 9.16999 2.27532C9.80639 1.63893 10.867 1.56822 11.5034 2.20461L11.5742 2.27532Z" fill="#E2E2E2"/>
  <path d="M13.0004 12.2004H7.40039L11.2004 8.40039C11.4004 8.20039 11.4004 7.90039 11.2004 7.70039L7.80039 4.30039C7.60039 4.10039 7.30039 4.10039 7.10039 4.30039L1.70039 9.80039C1.50039 10.0004 1.40039 10.2004 1.40039 10.5004V13.2004C1.40039 13.8004 1.80039 14.2004 2.40039 14.2004H13.1004C13.7004 14.2004 14.1004 13.8004 14.1004 13.2004C14.1004 12.6004 13.7004 12.2004 13.1004 12.2004H13.0004Z" fill="#E2E2E2"/>
</svg>