<svg xmlns="http://www.w3.org/2000/svg" width="32" height="32" viewBox="0 0 32 32" fill="none">
  <path d="M5.33301 26.6671H26.6663M5.33301 26.6671V21.3338L15.9997 10.6671M5.33301 26.6671L10.6663 26.6671L21.333 16.0005M15.9997 10.6671L19.8245 6.84228L19.8268 6.84001C20.3533 6.3135 20.617 6.04978 20.921 5.951C21.1888 5.86399 21.4773 5.86399 21.7451 5.951C22.0489 6.04971 22.3123 6.31313 22.8381 6.83889L25.1578 9.15862C25.6858 9.68664 25.95 9.95078 26.0489 10.2552C26.1359 10.523 26.1359 10.8115 26.0489 11.0793C25.95 11.3835 25.6863 11.6472 25.159 12.1745L25.1578 12.1756L21.333 16.0005M15.9997 10.6671L21.333 16.0005" stroke="#E9E9E9" stroke-width="2" stroke-linecap="round" stroke-linejoin="round"/>
</svg>