<svg xmlns="http://www.w3.org/2000/svg" width="48" height="48" viewBox="0 0 48 48" fill="none">
  <path d="M8 40.0002H40M8 40.0002V32.0002L24 16.0002M8 40.0002L16 40.0002L32 24.0002M24 16.0002L29.7373 10.2629L29.7407 10.2595C30.5305 9.46976 30.9261 9.07418 31.3821 8.92601C31.7837 8.7955 32.2165 8.7955 32.6182 8.92601C33.0738 9.07407 33.469 9.4692 34.2576 10.2578L37.7372 13.7374C38.5292 14.5295 38.9254 14.9257 39.0738 15.3823C39.2043 15.784 39.2043 16.2167 39.0738 16.6184C38.9255 17.0747 38.5299 17.4703 37.739 18.2612L37.7373 18.2629L32 24.0002M24 16.0002L32 24.0002" stroke="#E9E9E9" stroke-width="2" stroke-linecap="round" stroke-linejoin="round"/>
</svg>