<svg xmlns="http://www.w3.org/2000/svg" width="20" height="21" viewBox="0 0 20 21" fill="none">
  <path d="M2.5 5.42517V15.5752C2.5 16.5553 2.5 17.0446 2.68166 17.419C2.84144 17.7483 3.09623 18.0167 3.40983 18.1844C3.766 18.375 4.23249 18.375 5.16409 18.375H14.8359C15.7675 18.375 16.2333 18.375 16.5895 18.1844C16.9031 18.0167 17.1587 17.7483 17.3185 17.419C17.5 17.045 17.5 16.5559 17.5 15.5777V5.4223C17.5 4.44412 17.5 3.9543 17.3185 3.58032C17.1587 3.25104 16.9031 2.98352 16.5895 2.81574C16.233 2.625 15.7669 2.625 14.8335 2.625H5.16683C4.23341 2.625 3.76635 2.625 3.40983 2.81574C3.09623 2.98352 2.84144 3.25104 2.68166 3.58032C2.5 3.95467 2.5 4.44508 2.5 5.42517Z" stroke="#E9E9E9" stroke-width="1.5" stroke-linecap="round" stroke-linejoin="round"/>
</svg>