<svg xmlns="http://www.w3.org/2000/svg" width="24" height="24" viewBox="0 0 24 25" fill="none">
  <path d="M2 5.78694V19.2129C2 20.5093 2 21.1572 2.24221 21.6523C2.45526 22.0879 2.79497 22.4424 3.21311 22.6643C3.688 22.9163 4.30999 22.9163 5.55212 22.9163H18.4479C19.69 22.9163 20.3111 22.9163 20.786 22.6643C21.2041 22.4424 21.545 22.0879 21.758 21.6523C22 21.1576 22 20.5107 22 19.2168V5.78313C22 4.48925 22 3.84134 21.758 3.34666C21.545 2.9111 21.2041 2.55724 20.786 2.33531C20.3106 2.08301 19.6892 2.08301 18.4447 2.08301H5.55577C4.31121 2.08301 3.68847 2.08301 3.21311 2.33531C2.79497 2.55724 2.45526 2.9111 2.24221 3.34666C2 3.84183 2 4.49052 2 5.78694Z" fill="#FE7211"/>
  <path d="M16.0003 9.375L10.667 15.625L8 12.5" stroke="#E9E9E9" stroke-width="2" stroke-linecap="round" stroke-linejoin="round"/>
</svg>