<svg xmlns="http://www.w3.org/2000/svg" width="20" height="21" viewBox="0 0 20 21" fill="none">
  <path d="M1.66699 4.8613V16.1391C1.66699 17.2281 1.66699 17.7723 1.86883 18.1882C2.04638 18.5541 2.32947 18.8519 2.67792 19.0383C3.07366 19.25 3.59199 19.25 4.62709 19.25H15.3736C16.4087 19.25 16.9262 19.25 17.322 19.0383C17.6704 18.8519 17.9545 18.5541 18.132 18.1882C18.3337 17.7727 18.3337 17.2292 18.3337 16.1424V4.85811C18.3337 3.77124 18.3337 3.227 18.132 2.81147C17.9545 2.4456 17.6704 2.14835 17.322 1.96193C16.9259 1.75 16.408 1.75 15.3709 1.75H4.63014C3.593 1.75 3.07405 1.75 2.67792 1.96193C2.32947 2.14835 2.04638 2.4456 1.86883 2.81147C1.66699 3.22741 1.66699 3.77231 1.66699 4.8613Z" fill="#FE7211"/>
  <path d="M13.3339 7.875L8.88949 13.125L6.66699 10.5" stroke="#E9E9E9" stroke-width="2" stroke-linecap="round" stroke-linejoin="round"/>
</svg>