<svg xmlns="http://www.w3.org/2000/svg" width="24" height="24" viewBox="0 0 24 25" fill="none">
<path d="M3 6.45854V18.5419C3 19.7086 3 20.2912 3.21799 20.7369C3.40973 21.1289 3.71547 21.4484 4.0918 21.6482C4.5192 21.875 5.07899 21.875 6.19691 21.875H17.8031C18.921 21.875 19.48 21.875 19.9074 21.6482C20.2837 21.4484 20.5905 21.1289 20.7822 20.7369C21 20.2917 21 19.7094 21 18.5449V6.45511C21 5.29062 21 4.7075 20.7822 4.26229C20.5905 3.87028 20.2837 3.55181 19.9074 3.35207C19.4796 3.125 18.9203 3.125 17.8002 3.125H6.2002C5.08009 3.125 4.51962 3.125 4.0918 3.35207C3.71547 3.55181 3.40973 3.87028 3.21799 4.26229C3 4.70794 3 5.29176 3 6.45854Z" stroke="#E9E9E9" stroke-width="2" stroke-linecap="round" stroke-linejoin="round"/>
</svg>