<svg xmlns="http://www.w3.org/2000/svg" width="16" height="16" viewBox="0 0 16 16" fill="none">
  <path d="M9.19699 5.77143V6.27143H9.69699H12.4616C12.7733 6.27143 13.059 6.40489 13.2593 6.64238C13.4544 6.8737 13.5368 7.18253 13.4848 7.49749L12.5797 12.6379L12.5797 12.6379C12.4913 13.14 12.0606 13.5 11.5561 13.5H3.62583C3.00721 13.5 2.5 12.9941 2.5 12.3817V8.42514C2.5 7.8032 3.00311 7.3 3.62583 7.3H4.90866H5.23838L5.36825 6.99694L7.11029 2.9316C7.11037 2.93143 7.11044 2.93127 7.11051 2.93111C7.2252 2.66548 7.47904 2.5 7.75559 2.5C8.58669 2.5 9.19699 3.1291 9.19699 3.88571V5.77143ZM5.2303 7.82857V7.32857H4.7303H3.62583C3.02061 7.32857 2.52901 7.81966 2.52901 8.42514V12.3817C2.52901 12.9841 3.02437 13.4714 3.62583 13.4714H4.7303H5.2303V12.9714V7.82857ZM12.5569 12.6285L12.5992 12.3746L12.5944 12.3698L13.4548 7.48327L13.455 7.48228C13.5071 7.18247 13.4283 6.88385 13.2385 6.65349C13.0409 6.41359 12.758 6.29314 12.4616 6.29314H9.16798V3.87886C9.16798 3.13462 8.57184 2.52171 7.81733 2.52171C7.69341 2.52171 7.55468 2.54428 7.42443 2.61731C7.28699 2.69438 7.19446 2.8079 7.14093 2.92829L7.14089 2.92827L7.13804 2.93493L5.3064 7.22064L5.26617 7.31478V7.41714V12.9714V13.4714H5.76617H11.5561C12.0495 13.4714 12.4748 13.1211 12.5569 12.6285Z" stroke="#E9E9E9"/>
</svg>