<svg xmlns="http://www.w3.org/2000/svg" width="24" height="24" viewBox="0 0 24 24" fill="none">
  <path d="M13.97 8.75V9.25H14.47H18.5C19.022 9.25 19.5024 9.47454 19.8377 9.8723C20.1679 10.2638 20.3036 10.7832 20.2172 11.3056C20.217 11.3064 20.2169 11.3071 20.2168 11.3078L18.8976 18.8033L18.8976 18.8034C18.7495 19.645 18.0266 20.25 17.18 20.25H5.62C4.59339 20.25 3.75 19.4111 3.75 18.39V12.62C3.75 11.5861 4.58614 10.75 5.62 10.75H7.49H7.81977L7.94961 10.4469L10.4892 4.51781C10.4893 4.51767 10.4893 4.51754 10.4894 4.5174C10.692 4.04738 11.1438 3.75 11.64 3.75C12.9733 3.75 13.97 4.76548 13.97 6V8.75ZM7.73 11.75V11.25H7.23H5.62C4.86386 11.25 4.25 11.8639 4.25 12.62V18.39C4.25 19.1399 4.86762 19.75 5.62 19.75H7.23H7.73V19.25V11.75ZM18.4132 18.7122L18.4555 18.4584L18.4475 18.4504L19.7224 11.2067L19.7226 11.2057C19.7873 10.8337 19.6897 10.4659 19.456 10.1821C19.2144 9.8888 18.8687 9.74 18.5 9.74H13.47V5.99C13.47 5.02911 12.7014 4.24 11.73 4.24C11.5762 4.24 11.4155 4.26807 11.2691 4.35018C11.1156 4.43631 11.0129 4.56243 10.9531 4.69693L10.953 4.69691L10.9502 4.70357L8.2802 10.9536L8.24 11.0477V11.15V19.25V19.75H8.74H17.18C17.7898 19.75 18.3123 19.3178 18.4132 18.7122Z" stroke="#E9E9E9"/>
</svg>