<svg xmlns="http://www.w3.org/2000/svg" width="16" height="16" viewBox="0 0 16 16" fill="none">
  <path d="M4.42947 2H12.3595C13.2595 2 13.9895 2.73 13.9895 3.62V7.58C13.9895 8.48 13.2595 9.2 12.3595 9.2H11.0795L9.33947 13.27C9.14947 13.72 8.70947 14 8.23947 14C7.14947 14 6.29947 13.17 6.29947 12.11V10.22H3.53947C3.07947 10.22 2.65947 10.02 2.35947 9.67C2.06947 9.32 1.94947 8.87 2.01947 8.41L2.91947 3.28C3.04947 2.54 3.68947 2 4.42947 2ZM10.2195 3.03H4.42947C4.17947 3.03 3.95947 3.21 3.91947 3.45L3.87947 3.71L3.01947 8.6C2.98947 8.75 3.02947 8.91 3.12947 9.02C3.24947 9.17 3.40947 9.2 3.51947 9.2H7.30947V12.11C7.30947 12.58 7.68947 12.97 8.15947 12.97C8.21947 12.97 8.26947 12.96 8.30947 12.94C8.33947 12.92 8.36947 12.9 8.37947 12.86L10.2095 8.57V3.03H10.2195ZM12.3595 8.17C12.6895 8.17 12.9595 7.9 12.9595 7.57V3.62C12.9595 3.29 12.6895 3.03 12.3595 3.03H11.2595V8.17H12.3595Z" fill="#E9E9E9"/>
</svg>