<svg xmlns="http://www.w3.org/2000/svg" width="24" height="24" viewBox="0 0 24 24" fill="none">
  <path d="M18.3804 3.25H6.81043C5.72043 3.25 4.79043 4.03 4.60043 5.11L3.29043 12.61C3.18043 13.27 3.36043 13.94 3.78043 14.45C4.21043 14.96 4.83043 15.25 5.50043 15.25H9.53043V18C9.53043 19.52 10.7604 20.75 12.3604 20.75C13.0604 20.75 13.6904 20.33 13.9704 19.68L16.5104 13.75H18.3904C19.7004 13.75 20.7604 12.69 20.7604 11.38V5.61C20.7604 4.31 19.7004 3.25 18.3904 3.25H18.3804ZM15.2604 12.85L12.5904 19.1C12.5504 19.19 12.4604 19.26 12.2704 19.26C11.5804 19.26 11.0304 18.7 11.0304 18.01V13.76H5.50043C5.27043 13.76 5.07043 13.67 4.93043 13.5C4.85801 13.4158 4.80591 13.3162 4.77817 13.2086C4.75042 13.1011 4.74778 12.9887 4.77043 12.88L6.08043 5.38C6.14043 5.02 6.45043 4.76 6.82043 4.76H15.2604V12.85ZM19.2504 11.38C19.2504 11.86 18.8604 12.25 18.3804 12.25H16.7704V4.75H18.3804C18.8604 4.75 19.2504 5.14 19.2504 5.61V11.38Z" fill="#CCC5C0"/>
</svg>