<svg xmlns="http://www.w3.org/2000/svg" width="16" height="16" viewBox="0 0 16 16" fill="none">
  <path d="M4.44423 12.4685L5.29087 11.82L5.2971 11.8154C5.4736 11.6802 5.56267 11.612 5.66205 11.5634C5.7512 11.5198 5.84627 11.488 5.94434 11.4688C6.05487 11.447 6.17002 11.447 6.40115 11.447H11.2239C11.845 11.447 12.1559 11.447 12.3933 11.3312C12.6024 11.2292 12.7725 11.0663 12.879 10.8661C13 10.6388 13 10.3414 13 9.74677V5.70054C13 5.10588 13 4.80811 12.879 4.58076C12.7725 4.38058 12.6021 4.21795 12.393 4.11595C12.1553 4 11.8446 4 11.2223 4H4.77789C4.15561 4 3.84423 4 3.60655 4.11595C3.39748 4.21795 3.22763 4.38058 3.1211 4.58076C3 4.80833 3 5.10647 3 5.70229V11.8041C3 12.371 3 12.6543 3.12137 12.7999C3.22691 12.9265 3.38691 13.0002 3.5561 13C3.75064 12.9998 3.98191 12.8227 4.44423 12.4685Z" fill="#E9E9E9" stroke="#E9E9E9" stroke-width="2" stroke-linecap="round" stroke-linejoin="round"/>
</svg>