<svg width="363" height="392" viewBox="0 0 363 392" fill="none" xmlns="http://www.w3.org/2000/svg">
<path d="M335.552 243.774C333.03 231.205 328.775 219.043 319.984 209.222C304.569 192.049 285.638 180.65 262.758 176.681C256.006 175.511 249.203 173.603 242.221 174.493C235.648 175.358 229.099 176.452 222.602 177.724C213.429 179.505 204.308 181.77 196.664 187.418C180.052 199.732 167.312 215.201 160.636 235.021C156.05 248.659 152.712 262.423 155.872 277.129C159.948 296.16 168.535 312.698 182.294 326.335C187.899 331.907 194.728 336.258 201.021 341.168C209.2 343.967 216.92 348.216 225.736 348.877C234.96 349.564 244.183 350.251 253.381 350.938C255.216 350.913 257.05 350.862 258.859 350.836C275.778 350.836 292.696 350.862 309.64 350.887C313.946 348.597 319.016 349.081 323.449 347.173C327.603 345.392 330.431 343.076 331.246 338.064C333.183 326.31 335.832 314.657 335.705 302.622C335.654 298.094 335.297 293.489 335.934 289.036C338.126 273.923 338.559 258.759 335.527 243.799L335.552 243.774ZM248.642 333.052C241.89 333.306 235.418 326.666 235.673 319.135C235.775 318.702 235.826 317.583 236.259 316.641C236.947 315.089 238.272 314.123 240.03 314.326C241.431 314.504 242.374 315.522 242.654 316.921C243.011 318.702 242.425 320.636 243.495 322.341C244.514 324.02 245.865 325.394 247.903 325.19C249.789 324.987 250.171 323.231 250.476 321.679C250.731 320.381 250.68 319.033 250.986 317.761C251.496 315.751 252.846 314.453 254.986 314.784C257.152 315.089 257.967 316.794 258.222 318.779C259.139 325.495 254.171 332.874 248.642 333.077V333.052Z" fill="#FEFBE0"/>
<path d="M32.9582 16.3646C43.5067 19.9012 54.0551 23.4631 64.6291 26.9233C66.8967 27.6612 69.2918 28.0683 71.6614 28.5008C77.649 29.5694 80.9868 33.1059 82.1334 39.0849C83.28 45.1657 83.6112 51.2465 83.7131 57.4037C84.0443 76.6638 82.0315 95.8221 81.7767 115.031C81.5219 132.943 81.5219 150.829 81.2416 168.741C81.1907 172.761 81.955 175.127 86.1591 177.315C95.7139 182.251 95.3827 196.651 85.7515 201.333C82.2353 203.038 81.7512 205.073 81.9805 208.152C82.592 217.209 83.2035 226.267 83.8405 235.324C84.1717 240.108 84.7578 244.891 84.8087 249.699C85.089 271.046 88.0446 292.341 86.2356 313.739C85.4712 322.796 84.3501 331.778 82.0824 340.606C79.9676 348.85 75.4068 354.803 67.5847 358.645C56.6285 364.039 46.6661 371.214 35.9902 376.048C35.9393 378.618 37.1878 378.872 38.0795 378.948C47.9146 379.712 57.8261 381.365 67.6101 380.857C82.9233 380.042 98.0325 380.729 113.193 382.561C123.053 383.757 132.939 383.63 142.851 383.324C149.272 383.121 155.692 383.146 162.113 383.197C163.973 383.197 165.859 383.452 167.668 383.884C169.579 384.342 171.26 385.462 171.184 387.675C171.107 390.27 169.12 391.288 166.878 391.593C165.578 391.771 164.202 391.593 162.903 391.39C156.508 390.525 150.112 390.779 143.717 391.466C132.2 392.687 120.735 391.619 109.345 390.169C100.555 389.049 91.7391 388.413 82.9487 388.769C64.9603 389.532 47.1502 387.802 29.3656 385.869C20.7281 384.927 14.5621 380.449 11.2752 372.104C7.40237 362.309 5.36402 352.233 5.16018 341.675C4.75251 321.651 5.10922 301.552 3.27471 281.63C-0.623636 239.65 0.395539 197.746 0.395539 155.816C0.395539 137.141 1.61855 118.466 1.9243 99.7657C2.28101 76.791 2.00074 53.8163 2.48485 30.8415C2.89252 10.7927 4.21745 11.4542 22.8684 8.09575C41.4938 4.73732 60.5524 3.61784 79.509 3.00722C95.8158 2.47292 112.072 1.35344 128.353 0.437505C146.8 -0.605645 165.247 0.310292 183.618 2.19305C194.243 3.28709 204.919 4.40656 215.391 6.41654C236.946 10.5891 240.004 13.2861 244.055 34.7597C246.526 47.8627 247.877 61.1692 248.386 74.5012C248.437 75.5698 248.437 76.6383 248.412 77.7069C248.335 80.8873 248.82 85.0599 244.335 84.9581C240.055 84.8818 240.182 80.6074 240.182 77.5034C240.182 64.0951 238.475 50.8903 236.513 37.6602C233.863 19.8503 231.06 16.9244 213.021 13.973C185.223 9.44422 157.272 7.45969 129.117 8.65549C104.555 9.69864 79.9931 10.9962 55.431 12.3447C48.042 12.7518 40.7039 13.6931 33.3404 14.3801L32.9582 16.3137V16.3646Z" fill="#FFCA42"/>
<path d="M195.923 129.252C192.993 127.573 192.993 125.233 192.815 122.561C191.974 110.272 183.642 102.309 171.055 102.207C168.431 102.029 165.373 102.538 162.265 103.555C157.398 105.133 153.245 108.237 148.43 109.789C143.028 111.544 139.486 115.31 136.276 119.584C133.703 122.968 133.269 126.403 134.62 130.754C139.767 147.342 150.086 160.954 159.335 175.177C162.265 179.68 167.259 181.995 172.635 180.596C183.846 177.644 194.267 172.53 202.166 163.982C211.568 153.805 208.128 136.275 195.949 129.303L195.923 129.252ZM165.272 135.359C164.711 135.689 163.896 135.588 163.463 135.13C161.042 132.56 158.443 130.118 156.175 127.395C155.666 126.785 155.564 125.919 156.175 125.309C156.175 125.309 156.175 125.309 156.175 125.283C156.175 125.283 156.226 125.283 156.226 125.258C156.328 125.131 156.456 125.004 156.634 124.902C159.946 123.019 163.259 120.831 167.004 119.864C169.272 119.279 172.712 119.101 174.138 121.416C175.208 123.172 174.342 125.334 173.374 126.937C172.227 128.845 170.699 130.55 169.119 132.128C167.947 133.298 166.673 134.545 165.272 135.41V135.359ZM185.044 156.044C183.999 157.494 182.725 158.791 181.222 159.784C179.897 160.649 178.062 161.361 176.482 160.801C174.979 160.267 174.062 158.893 173.298 157.57C172.915 156.883 172.533 156.171 172.151 155.484C171.743 154.797 171.463 154.364 171.03 153.932C170.342 153.219 170.571 152.304 171.157 151.795L171.234 151.718C171.641 151.26 172.176 150.955 172.712 150.701C174.724 149.174 177.119 148.029 179.565 147.419C181.553 146.91 184.254 146.655 185.757 148.385C187.617 150.548 186.521 154.034 185.069 156.069L185.044 156.044Z" fill="#7FE27C"/>
<path d="M229.3 90.9634C236.485 88.6227 240.817 94.5763 245.556 99.6139C246.804 100.962 247.569 102.743 248.766 104.168C251.9 107.857 254.066 107.781 256.971 103.888C259.366 100.708 261.124 97.0951 264.105 94.3218C268.513 90.251 276.692 89.8185 282.577 93.4822C287.546 96.5862 288.59 100.352 286.552 107.476C284.081 116.177 281.303 124.726 277.125 132.791C275.672 135.59 273.787 138.083 270.831 138.389C266.016 138.872 264.818 141.849 264.207 145.716C264.003 147.014 263.672 148.311 263.519 149.634C262.474 158.361 260.13 161.185 253.658 161.541C243.135 162.101 238.753 159.43 236.74 151.059C236.256 149.024 236.332 146.836 236.179 144.724C235.874 140.449 234.345 136.964 230.09 135.259C224.663 133.071 221.962 128.771 220.382 123.403C218.752 117.78 217.248 112.081 214.93 106.738C210.955 97.5785 216.815 89.157 226.472 90.9634C226.981 91.0652 227.542 90.9634 229.3 90.9634Z" fill="#7FE27C"/>
<path d="M356.216 118.161C347.91 113.886 339.171 110.579 329.998 108.798C323.501 107.525 318.252 109.154 314.481 115.489C306.659 128.592 300.544 142.407 295.448 156.706C293.41 162.38 294.301 164.644 299.244 168.13C307.143 173.702 316.137 177.213 324.698 181.538C326.049 182.225 327.807 182.047 329.361 182.378C334.151 183.421 339.425 176.933 340.343 172.481C341.107 168.741 339.145 166.044 333.693 163.83C331.196 162.838 328.775 161.871 326.66 160.192C325.514 159.276 324.571 158.411 325.514 156.935C326.304 155.714 327.527 155.18 328.953 155.841C332.087 157.317 335.247 158.792 338.304 160.395C341.132 161.871 343.375 161.566 345.133 158.742C345.974 157.393 347.018 156.172 347.961 154.874C350.815 150.956 351.069 147.878 348.623 145.003C348.572 144.977 348.522 144.926 348.471 144.901C346.712 143.629 344.852 142.407 342.967 141.313C341.285 140.321 339.553 139.558 337.769 138.769C336.393 138.158 334.533 137.268 334.533 135.512C334.533 134.622 335.221 134.113 336.037 134.011C337.769 133.808 339.222 134.342 340.572 135.131C343.247 136.098 345.642 137.904 348.292 138.922C350.229 139.685 352.191 141.415 354.28 139.965C358.79 136.861 362.229 132.714 362.892 127.167C363.452 122.46 359.834 119.967 356.242 118.11L356.216 118.161Z" fill="#7FE27C"/>
<path d="M200.995 341.144C209.174 343.942 216.894 348.191 225.71 348.853C234.933 349.54 244.157 350.227 253.355 350.914C253.941 357.58 253.712 364.245 252.794 370.861C251.877 377.527 250.374 379.053 243.928 380.224C228.538 383.022 213.072 381.928 197.632 380.936C191.568 380.554 187.465 376.891 186.37 372.26C185.249 367.502 187.771 360.455 192.918 358.953C200.74 356.664 201.581 351.677 200.893 345.138C200.766 343.815 200.944 342.467 200.969 341.144H200.995Z" fill="#524945"/>
<path d="M258.861 350.809C275.779 350.809 292.697 350.834 309.641 350.859C309.811 355.253 311.883 358.06 315.858 359.281C321.82 361.087 324.7 365.082 324.343 371.061C323.91 378.49 321.897 380.729 314.202 381.747C298.532 383.808 282.888 382.357 267.269 381.034C262.555 380.627 260.593 378.49 259.931 373.071C259.014 365.693 258.096 358.289 258.886 350.809H258.861Z" fill="#524945"/>
<path d="M285.82 246.442C282.024 235.527 274.38 228.556 263.245 225.783C253.538 223.391 243.728 223.035 233.995 226.19C232.696 226.622 231.396 227.233 230.071 227.589C230.046 227.589 230.02 227.589 229.969 227.615C230.148 227.538 229.715 227.716 229.689 227.742C229.383 227.894 229.103 228.047 228.848 228.225C228.262 228.607 227.676 228.938 227.039 229.217C226.326 229.523 225.587 229.854 224.848 230.083C224.313 230.235 223.752 230.362 223.217 230.49C222.606 230.744 222.02 230.973 221.459 231.278C202.757 241.532 199.292 271.707 206.401 284.504C212.72 295.903 222.376 303.714 234.352 308.471C245.435 312.873 256.34 311.016 267.067 306.69C278.584 302.034 285.361 293.231 288.776 281.706C292.343 269.646 289.82 257.942 285.795 246.442H285.82Z" fill="#FE7211"/>
<path d="M235.676 319.132C235.778 318.699 235.829 317.579 236.262 316.638C236.95 315.086 238.275 314.119 240.033 314.323C241.434 314.501 242.377 315.519 242.657 316.918C243.014 318.699 242.428 320.633 243.498 322.337C244.517 323.991 245.867 325.39 247.906 325.187C249.791 324.983 250.173 323.228 250.479 321.676C250.734 320.378 250.683 319.03 250.989 317.758C251.498 315.748 252.849 314.45 254.989 314.781C257.155 315.086 257.97 316.791 258.225 318.775C259.142 325.492 254.174 332.871 248.645 333.074C241.893 333.329 235.421 326.688 235.676 319.157V319.132Z" fill="#2B2C35"/>
<path d="M223.67 227.055C224.868 226.826 226.04 226.572 227.136 226.139C228.384 225.147 229.913 224.384 230.27 222.628C225.632 220.618 221.301 218.227 218.982 213.393C216.816 213.571 214.982 214.614 213.249 215.759C210.701 217.438 208.79 219.651 209.81 222.934C210.752 226.038 213.173 227.513 216.307 227.691C216.842 227.717 217.403 227.717 217.938 227.742C219.874 227.691 221.759 227.411 223.67 227.03V227.055Z" fill="#69A5FF"/>
<path d="M245.385 201.639C245.334 201.461 245.334 201.308 245.283 201.13C244.926 200.596 244.57 200.112 244.162 199.68C239.958 195.253 234.633 194.006 228.849 195.227C222.581 196.55 219.651 201.206 218.657 207.16C218.428 208.457 218.453 209.806 218.479 211.154C218.632 212.223 218.835 213.291 219.243 214.309C219.574 215.123 220.033 215.861 220.492 216.599C222.683 219.194 225.638 220.873 228.798 222.298C229.333 222.4 229.893 222.527 230.428 222.654C230.836 222.731 231.244 222.807 231.601 222.883C236.518 223.112 240.493 221.662 243.474 218.482C243.499 218.456 243.55 218.456 243.576 218.405C246.047 215.938 246.71 212.452 246.761 209.068C246.786 206.702 246.939 203.547 245.41 201.613L245.385 201.639ZM236.314 216.726C235.805 217.032 235.168 217.082 234.582 217.082C233.435 217.082 232.288 216.828 231.167 216.574C230.148 216.345 229.18 215.963 228.263 215.48C227.065 214.843 225.638 213.851 225.384 212.426C225.231 211.51 225.562 210.518 226.403 210.009C227.091 209.577 227.957 209.602 228.721 209.831C229.282 209.984 229.868 210.238 230.428 210.569C231.677 210.569 233.002 211.103 234.047 211.663C235.244 212.299 236.747 213.291 237.13 214.691C237.333 215.48 237.002 216.319 236.289 216.726H236.314ZM239.142 207.465C238.556 208.025 237.665 208.127 236.9 208.076C235.397 207.974 233.792 207.567 232.441 206.905C231.575 206.498 230.709 205.964 229.995 205.302C229.409 204.743 228.951 204.03 228.594 203.318C228.467 203.038 228.416 202.733 228.467 202.453C228.467 202.377 228.416 202.326 228.416 202.249C228.39 201.613 229.027 200.926 229.69 200.977C230.887 201.079 232.059 201.359 233.231 201.613C234.225 201.842 235.244 201.944 236.212 202.3C237.461 202.758 238.862 203.852 239.474 205.073C239.881 205.888 239.856 206.829 239.168 207.465H239.142Z" fill="#2B2C35"/>
<path d="M273.155 198.79C269.715 195.254 265.205 194.312 260.746 194.185C256.211 194.058 253.332 196.602 250.886 199.884C250.81 200.037 250.784 200.19 250.733 200.342C250.122 201.08 249.739 201.971 249.536 202.938C249.23 204.515 249.026 206.169 249 207.772C249 210.214 249.51 212.58 250.682 214.692C250.733 214.845 250.784 215.023 250.86 215.175C251.064 215.404 251.243 215.633 251.447 215.888C251.523 215.99 251.548 216.091 251.625 216.168C251.65 216.219 251.727 216.244 251.778 216.269C251.854 216.371 251.956 216.473 252.033 216.575C252.033 216.575 252.033 216.6 252.033 216.626C259.753 223.164 267.295 223.75 273.461 218.229C278.684 213.522 278.48 204.311 273.18 198.816L273.155 198.79ZM263.855 214.972C263.473 215.659 262.683 215.888 261.944 215.888C261.307 215.888 260.645 215.735 260.033 215.557C259.32 215.328 258.734 214.972 258.173 214.489C257.562 213.954 256.95 213.394 256.466 212.733C256.084 212.25 255.803 211.69 255.523 211.155C254.886 210.825 254.759 210.011 255.065 209.425C255.37 208.866 256.058 208.713 256.619 208.917C256.67 208.917 256.695 208.967 256.746 208.967C257.103 208.967 257.46 209.069 257.663 209.324C257.689 209.349 257.714 209.375 257.74 209.425C257.842 209.476 257.944 209.527 258.046 209.578C258.097 209.578 258.097 209.578 258.097 209.603C258.097 209.603 258.097 209.603 258.148 209.603L258.453 209.731C258.657 209.807 258.886 209.909 259.09 209.985C259.906 210.316 260.721 210.672 261.46 211.155C262.199 211.639 262.963 212.148 263.524 212.835C264.008 213.445 264.314 214.234 263.88 214.972H263.855ZM269.766 208.128C269.766 208.128 269.715 208.128 269.69 208.128C269.409 208.662 268.9 209.069 268.212 209.069C267.371 209.069 266.556 208.637 265.817 208.331C264.9 207.975 263.982 207.594 263.142 207.136C262.352 206.703 261.587 206.169 260.95 205.533C260.313 204.897 259.651 204.235 259.167 203.446C258.734 203.141 258.53 202.581 258.657 202.072C258.81 201.386 259.574 201.029 260.237 201.182C261.817 201.589 263.447 201.818 265.002 202.327C266.479 202.81 268.008 203.523 269.002 204.769C269.537 205.431 269.97 206.22 269.995 207.11C269.995 207.441 269.919 207.772 269.766 208.051C269.766 208.077 269.766 208.102 269.792 208.128H269.766Z" fill="#2B2C35"/>
</svg>
