<svg width="405" height="392" viewBox="0 0 405 392" fill="none" xmlns="http://www.w3.org/2000/svg">
<path d="M154.384 326.72C155.457 326.445 157.273 328.233 158.511 328.701C176.12 335.304 192.904 342.843 211.861 344.687C211.613 348.704 211.531 352.721 211.118 356.711C210.32 364.194 208.422 366.148 201.213 367.441C184.649 370.413 168.003 369.229 151.385 368.156C144.699 367.716 140.159 363.341 139.113 357.839C138.178 352.969 141.479 345.622 147.147 343.971C155.539 341.495 155.484 333.351 154.384 326.72Z" fill="#524945"/>
<path d="M217.832 345.103C236.377 344.938 254.949 344.69 273.493 344.718C276.85 344.718 280.399 345.901 283.316 347.689C285.269 348.873 286.7 349.891 287.608 351.927C291.405 360.401 287.085 368.298 277.896 369.508C260.727 371.764 243.585 370.251 226.472 368.765C221.794 368.353 219.51 364.968 218.988 360.594C218.382 355.476 218.19 350.303 217.805 345.158L217.832 345.103Z" fill="#524945"/>
<path d="M302.659 243C302.907 225.199 297.184 213.78 289.232 198.895C284.335 189.76 276.163 182.717 268.239 176.058C260.59 169.62 252.418 163.127 243.009 159.687C228.949 154.515 213.871 152.451 198.986 152.919C184.678 153.359 170.729 156.661 158.265 165.08C141.454 176.416 127.641 190.421 117.846 208.085C114.71 213.725 111.766 221.429 111.903 228.776C115.535 227.978 119.635 225.281 123.267 224.511C130.42 222.97 133.227 224.428 136.473 230.702C145.608 248.366 151.964 267.048 157.164 286.17C158.292 290.325 159.53 294.425 160.658 298.579C161.456 301.551 162.282 304.55 162.639 307.631C162.887 309.695 162.887 311.814 162.199 313.767C161.511 315.748 160.163 317.399 158.705 318.857C157.797 319.765 156.834 320.591 155.843 321.416C155.266 321.884 154.688 322.352 154.083 322.819C153.752 323.067 153.422 323.342 153.092 323.59C152.844 323.782 152.349 323.865 152.322 324.195C152.377 324.58 152.899 325.103 153.037 325.323C153.395 325.818 153.945 326.259 154.413 326.754C155.073 327.469 155.623 327.854 156.504 328.322C157.99 329.148 159.365 330.221 160.851 331.046C162.75 332.064 164.841 332.669 166.822 333.467C168.913 334.293 171.059 335.008 173.177 335.778C177.497 337.347 181.844 338.833 186.247 340.153C187.43 340.511 188.613 340.869 189.824 341.199C190.429 341.364 191.007 341.529 191.612 341.694C191.887 341.777 192.19 341.859 192.465 341.914C192.713 341.969 193.07 342.162 193.318 342.134C193.648 342.134 194.006 342.134 194.391 342.217C199.343 343.4 204.351 344.143 209.386 344.611C210.487 344.666 211.56 344.721 212.66 344.776C214.091 344.858 215.522 344.996 216.953 345.133C221.465 345.326 226.005 345.381 230.545 345.381C235.91 345.326 241.275 345.271 246.613 345.243C254.069 345.161 261.526 344.913 268.954 344.638C275.118 344.418 281.198 344.28 287.279 343.62C288.022 343.482 288.765 343.427 289.563 343.345C290.003 343.29 290.443 343.207 290.883 343.152C296.221 342.244 300.403 337.76 300.403 332.532C300.403 320.15 300.816 316.298 300.926 302.596C300.926 300.588 301.999 288.454 302.164 286.445C303.182 272.661 302.467 257.721 302.659 243.055V243ZM249.309 272.523C246.448 279.154 242.018 284.134 235.47 287.298C215.302 297.038 195.354 295.635 177.112 283.556C160.686 272.661 152.542 248.063 166.629 227.84C177.029 212.9 190.649 205.058 209.551 205.939C223.061 204.04 232.856 212.707 242.898 220.136C247.053 223.218 248.401 228.831 250.052 233.728C254.454 246.715 254.84 259.674 249.282 272.523H249.309Z" fill="#FEFBE0"/>
<path d="M167.646 41.2347C169.6 42.1427 172.131 42.9406 174.222 44.3989C180.798 49.0212 188.447 52.0203 194.17 57.8533C196.536 60.2746 198.517 59.9994 200.718 57.6882C215.081 42.6654 232.47 31.247 247.988 17.5449C254.426 11.8495 261.773 7.22709 268.459 1.80679C271.43 -0.58695 273.934 -0.394339 277.125 1.17397C286.838 5.93393 294.212 13.7205 302.356 20.489C305.52 23.1303 305.3 26.377 303.539 29.8988C302.329 32.2926 300.678 34.2461 298.724 35.9245C287.884 45.3068 276.795 54.4415 266.147 64.044C258.223 71.1702 250.024 77.8837 241.66 84.4596C231.947 92.081 222.565 100.088 212.825 107.682C209.413 110.323 205.203 111.644 201.076 113.047C198.655 113.872 196.619 113.652 194.5 112.469C188.447 109.167 181.926 106.746 176.258 102.646C168.499 97.0611 159.64 93.4567 151.193 89.1095C148.882 87.9264 146.46 86.9083 144.314 85.5051C137.546 81.0203 136.445 74.9947 141.535 68.6389C147.809 60.7973 154.385 53.1759 160.933 45.5819C162.584 43.6559 164.262 41.5098 167.674 41.2072L167.646 41.2347Z" fill="#FE7211"/>
<path d="M112.371 226.871C116.003 226.073 119.607 225.275 123.239 224.477C130.393 222.936 133.199 224.395 136.446 230.668C145.58 248.332 151.936 267.014 157.136 286.137C158.265 290.291 159.503 294.391 160.631 298.546C164.565 313.101 163.795 315.384 152.294 324.161C144.48 326.968 137.161 331.095 128.852 332.608C115.095 335.112 110.72 332.663 106.235 319.484C100.044 301.434 92.2304 284.183 80.2617 269.133C78.6384 267.097 76.9325 265.171 75.3092 263.162C69.6963 256.229 69.9164 250.506 76.0246 244.012C79.4363 240.353 83.646 237.794 88.1858 235.978C96.1925 232.759 104.309 229.898 112.398 226.871H112.371Z" fill="#FFCA42"/>
<path d="M68.9278 386.51C66.0663 387.83 63.1773 389.124 60.3158 390.444C56.4914 392.205 52.5018 392.425 48.5123 391.325C37.1764 388.161 25.868 384.859 14.5597 381.64C10.9278 380.594 7.51604 379.108 4.54451 376.742C-0.655682 372.615 -0.380537 367.855 5.34242 364.361C7.51605 363.013 9.99233 362.105 12.4136 361.197C20.7779 358.032 28.8946 354.428 35.8282 348.65C39.7077 345.431 44.0549 344.908 48.7874 346.559C53.4098 348.155 58.0597 349.613 62.6821 351.099C66.424 352.53 70.1935 353.988 73.9629 355.364C78.888 357.152 83.4003 359.656 87.2523 363.26C91.4895 367.195 91.6821 370.221 87.5274 374.128C85.2437 376.274 82.4098 377.843 79.7684 379.576C76.164 381.942 72.5046 384.198 68.8728 386.51H68.9278Z" fill="#535353"/>
<path d="M352.792 382.219C351.664 382.466 350.535 382.659 349.435 383.017C343.492 384.915 337.796 388.382 331.193 385.493C321.398 381.201 312.016 376.303 304.999 367.829C302.496 364.802 303.541 362.271 306.458 360.73C310.255 358.721 314.217 356.905 318.344 355.695C332.679 351.54 347.096 347.578 361.514 343.754C366.796 342.35 371.776 343.148 375.876 347.193C377.334 351.348 380.719 354.237 382.947 357.896C386.469 363.702 385.864 366.508 380.086 369.7C377.83 370.938 375.381 371.818 373.097 373.029C366.494 376.468 359.092 378.119 352.792 382.219Z" fill="#6D5959"/>
<path d="M352.794 382.219C359.095 378.12 366.496 376.441 373.1 373.03C375.383 371.847 377.832 370.939 380.088 369.7C385.866 366.509 386.471 363.702 382.95 357.897C380.748 354.237 377.337 351.348 375.878 347.194C380.914 346.231 385.811 344.58 391.121 344.91C394.588 345.13 396.927 346.396 398.908 349.285C401.934 353.66 403.2 358.667 404.686 363.565C405.869 367.444 403.503 370.168 400.063 371.737C393.295 374.846 386.471 377.845 379.675 380.871C376.786 382.137 373.76 383.127 371.036 384.641C364.295 388.383 358.104 388.933 352.822 382.219H352.794Z" fill="#81838F"/>
<path d="M68.9312 386.513C72.5631 384.201 76.2225 381.945 79.8269 379.579C82.4682 377.846 85.3022 376.277 87.5859 374.131C91.7405 370.224 91.5204 367.17 87.3107 363.263C83.4587 359.686 78.9464 357.182 74.0214 355.367C70.2519 353.991 66.4825 352.533 62.7405 351.102C75.9199 347.47 87.6684 350.662 98.5641 358.421C101.123 360.237 104.122 361.502 106.681 363.318C111.248 366.565 111.853 370.169 108.249 374.241C101.838 381.478 93.7215 386.705 84.9445 390.337C79.4692 392.621 73.7462 390.172 68.9587 386.513H68.9312Z" fill="#81838F"/>
<path d="M209.554 205.931C223.064 204.033 232.859 212.7 242.901 220.128C247.056 223.21 248.404 228.823 250.055 233.721C254.457 246.707 254.843 259.666 249.285 272.516C246.423 279.147 241.994 284.127 235.445 287.291C215.277 297.031 195.329 295.628 177.087 283.549C160.661 272.653 152.517 248.055 166.605 227.832C177.005 212.892 190.624 205.051 209.527 205.931H209.554Z" fill="#FE7211"/>
<path d="M223.451 306.83C223.231 314.424 217.976 319.982 211.262 319.652C204.219 319.322 198.936 313.682 198.991 306.638C198.991 304.189 199.266 301.713 202.018 301.163C204.824 300.585 206.035 302.621 206.502 305.207C206.75 306.61 207.053 308.041 207.658 309.307C208.483 311.04 210.244 311.673 212.005 311.48C213.491 311.315 214.537 310.215 214.977 308.701C215.307 307.601 215.582 306.473 215.802 305.345C216.243 302.896 217.178 300.64 220.067 300.942C223.534 301.3 223.616 304.107 223.479 306.83H223.451Z" fill="#2B2C35"/>
<path d="M203.029 191.408C202.864 195.205 199.699 198.617 196.563 198.067C193.178 197.461 191.858 195.04 191.94 191.766C192.023 187.749 194.967 184.75 198.324 185.135C201.213 185.465 203.166 188.051 203.029 191.381V191.408Z" fill="#2B2C35"/>
<path d="M220.862 197.983C217.752 197.185 216.404 194.929 216.514 191.737C216.624 188.243 219.321 185.216 222.21 185.546C225.787 185.959 226.667 188.683 226.639 191.709C226.612 195.231 223.806 198.23 220.889 197.983H220.862Z" fill="#2B2C35"/>
</svg>
