<svg width="403" height="392" viewBox="0 0 403 392" fill="none" xmlns="http://www.w3.org/2000/svg">
<path d="M360.89 357.73C360.71 355.96 360.529 354.226 360.348 352.456C358.542 352.637 356.772 352.782 354.966 352.962C350.523 354.299 345.972 353.829 341.457 354.046C326.863 354.66 312.27 354.515 297.713 353.937L277.304 352.709C254.944 352.276 234.391 344.871 213.946 336.743C210.406 335.334 207.227 331.397 202.603 333.709C202.676 334.829 202.748 335.949 202.784 337.104C203.109 346.749 203.145 355.382 190.647 358.922C184 360.801 181.038 368.422 181.869 375.864C182.664 382.835 188.624 387.928 196.715 389.409C198.196 389.698 199.713 389.879 201.231 389.987C221.64 391.396 242.049 392.155 262.421 388.94C272.427 387.35 275.245 384.605 276.365 374.346C276.798 370.192 276.906 366.038 277.304 361.884C277.52 359.609 277.557 345.232 280.591 345.34C283.589 345.413 284.564 359.861 284.781 362.101C285.323 367.375 285.287 372.721 286.045 377.922C287.309 386.519 289.983 388.759 298.471 389.879C312.378 391.685 326.394 391.757 340.373 391.974C348.32 392.118 356.303 391.649 364.177 390.782C373.172 389.807 375.989 386.592 377.001 377.886C378.373 366.002 374.87 361.667 360.854 357.839L360.89 357.73Z" fill="#524945"/>
<path d="M390.468 185.537C378.945 159.384 361.498 138.253 335.706 125.899C312.155 114.629 287.267 108.307 260.32 112.967C242.186 116.11 224.884 119.975 210.29 131.895C207.365 134.279 204.15 136.266 201.296 138.722C180.02 157.072 163.007 178.168 155.927 206.234C154.229 213.025 155.71 220.069 153.651 226.391C149.28 239.828 153.326 252.796 155.529 265.475C157.986 279.562 163.729 292.891 172.362 304.306C180.887 315.612 191.76 324.643 203.789 332.048C211.013 336.527 218.96 339.417 226.943 342.306C234.998 345.196 243.162 347.797 251.542 349.639C265.593 352.746 280.259 353.215 294.599 353.829C309.662 354.48 324.761 354.624 339.824 354.01C351.42 353.504 363.015 352.782 374.61 352.312C384.869 351.915 389.781 348.086 392.165 338.044C393.213 333.673 392.671 328.941 393.755 324.607C399.209 302.933 399.823 280.682 402.063 258.648C404.627 233.471 400.835 208.98 390.54 185.609L390.468 185.537ZM271.626 135.471C275.563 135.218 278.092 136.952 278.634 140.89C278.778 145.477 272.998 151.979 268.808 151.871C264.763 151.762 262.704 149.306 262.523 145.369C262.306 140.745 266.894 135.796 271.626 135.471ZM305.581 232.351C303.811 239.756 301.101 246.836 297.02 253.266C287.158 268.726 273.54 277.576 254.576 276.564C242.439 275.914 230.591 274.289 219.502 268.581C199.923 258.503 190.748 242.682 191.688 220.756C192.771 196.012 215.203 160.757 251.361 162.78C285.713 161.263 314.467 194.856 305.545 232.315L305.581 232.351ZM301.499 166.536C298.176 166.609 295.575 165.344 295.105 161.551C294.491 156.422 300.162 149.884 305.292 149.884C309.048 149.884 310.565 152.232 310.891 155.302C311.179 161.01 306.592 166.428 301.499 166.536Z" fill="#FEFBE0"/>
<path d="M51.7529 100.397C44.8175 85.3702 49.4411 74.642 64.3956 67.4898C66.563 66.4784 68.1884 64.4555 70.2113 63.0829C74.4375 60.157 79.2057 58.098 77.4357 51.1626C75.5212 43.7937 73.1372 37.2917 64.8291 35.2328C61.1446 34.3297 57.135 33.3905 53.4867 33.9685C39.9048 36.0636 35.1006 40.3982 36.979 53.4383C37.268 55.4611 37.9904 57.4478 38.2071 59.4707C38.8573 65.2863 36.7983 68.2845 30.9466 70.1628C29.2849 70.7047 27.5511 70.9936 25.8533 71.3549C7.25044 75.545 0.351165 70.1628 0.387287 51.4516C0.387287 28.2973 16.6422 8.79138 39.6158 2.75899C53.9202 -1.03383 68.08 -0.744869 81.9509 2.57836C98.9644 6.66016 110.379 16.955 114.569 34.6187C118.001 49.1398 116.7 62.1437 107.236 74.3891C103.191 79.5907 98.242 83.2029 92.4986 85.5508C86.972 87.8265 85.9966 91.0775 87.3692 96.0985C87.9833 98.4103 88.7058 100.794 88.6697 103.142C88.4891 109.102 85.8883 115.749 78.3027 116.544C73.8235 117.013 69.4528 118.711 64.9736 119.325C58.3994 120.228 56.2321 118.711 54.5704 112.39C53.5229 108.416 52.7282 104.37 51.8251 100.361L51.7529 100.397Z" fill="#FF545D"/>
<path d="M77.7989 156.639C73.103 157.506 68.1543 160.034 63.9642 155.916C59.1238 151.184 56.4869 145.152 56.4869 138.469C56.4869 133.521 60.3519 130.125 64.5782 128.536C71.3691 125.971 78.4491 124.129 85.9986 125.068C90.1165 125.574 92.5367 127.344 93.0424 131.209C95.0291 145.983 93.9094 154.977 77.7989 156.639Z" fill="#FF545D"/>
<path d="M183.059 99.5687C182.517 107.877 176.629 112.5 168.285 114.704C164.023 115.824 160.374 116.98 157.448 121.17C153.981 126.191 147.768 124.493 142.819 123.445C140.11 122.867 137.545 120.05 138.123 116.365C138.882 111.561 139.604 106.721 144.517 104.012C148.49 101.808 152.753 101.014 157.196 100.941C161.928 100.833 164.528 98.2683 165.179 93.7891C165.829 89.4183 163.842 85.8784 160.447 83.5305C156.943 81.1103 153.872 83.0248 151.091 85.6978C149.213 87.5039 147.081 89.2739 144.77 90.2853C140.146 92.3442 136.136 90.8633 133.247 86.8176C130.718 83.3137 130.357 79.9543 132.994 75.9448C141.952 62.3629 155.931 60.8819 170.344 66.4447C182.048 70.96 187.032 84.1084 183.023 99.6048L183.059 99.5687Z" fill="#FFCA42"/>
<path d="M145.056 129.475C147.621 130.233 150.8 130.089 151.739 133.701C152.822 137.855 152.461 142.19 150.583 146.163C149.21 149.125 146.356 150.064 143.792 149.848C139.71 149.486 137.326 148.367 134.003 145.549C132.45 144.249 132.088 143.021 132.413 140.384C135.556 131.028 136.604 126.007 145.056 129.475Z" fill="#FFCA42"/>
<path d="M251.4 162.853C285.752 161.336 314.505 194.929 305.583 232.388C303.813 239.793 301.104 246.873 297.022 253.303C287.16 268.763 273.542 277.613 254.578 276.601C242.441 275.951 230.593 274.326 219.504 268.618C199.926 258.54 190.751 242.719 191.69 220.793C192.773 196.049 215.205 160.794 251.363 162.817L251.4 162.853Z" fill="#FE7211"/>
<path d="M310.896 155.339C311.185 161.047 306.598 166.465 301.504 166.573C298.181 166.645 295.58 165.381 295.111 161.588C294.497 156.459 300.168 149.921 305.297 149.921C309.054 149.921 310.571 152.269 310.896 155.339Z" fill="#2B2C35"/>
<path d="M278.669 140.853C278.814 145.44 273.034 151.942 268.844 151.834C264.799 151.725 262.74 149.269 262.559 145.332C262.342 140.708 266.93 135.759 271.662 135.434C275.599 135.181 278.128 136.915 278.669 140.853Z" fill="#2B2C35"/>
<path d="M231.643 289.353C234.244 293.687 238.795 297.444 243.78 298.708C245.152 299.069 246.597 299.178 248.006 299.286C248.801 299.358 247.428 299.178 248.187 299.286C248.512 299.322 248.801 299.395 249.126 299.467C249.451 299.539 249.74 299.611 250.029 299.72C250.246 299.792 250.968 300.117 250.462 299.864C250.679 299.973 250.968 300.189 251.185 300.298C250.607 300.081 250.86 299.973 251.113 300.261C251.257 300.406 251.438 300.623 251.582 300.767C251.004 300.225 251.329 300.37 251.474 300.659C251.582 300.84 251.691 301.056 251.799 301.237C252.196 301.923 251.799 301.237 251.727 301.092C251.871 301.634 252.016 302.176 252.16 302.754C252.232 303.007 252.196 303.585 252.16 302.61C252.16 302.862 252.196 303.079 252.232 303.332C252.232 303.801 252.268 304.271 252.305 304.741C252.305 305.716 252.305 306.727 252.305 307.703C252.305 307.992 252.196 309.184 252.305 308.353C252.268 308.606 252.16 308.895 252.124 309.148C252.341 308.931 252.232 308.461 252.124 309.148C252.594 308.714 252.016 309.22 251.943 309.292C251.763 309.473 251.546 309.653 251.365 309.87C252.305 308.859 251.438 309.87 251.438 309.762C251.076 309.942 251.076 309.942 251.438 309.798C251.799 309.653 251.799 309.653 251.438 309.798C251.113 309.87 250.498 310.159 250.173 310.051C250.246 310.051 251.293 309.906 250.462 309.978C249.704 310.051 250.932 309.834 250.824 310.051C250.824 310.051 250.246 309.906 250.282 309.942C249.668 309.689 250.571 310.195 250.607 310.123C250.607 310.123 250.101 309.834 250.137 309.87C249.487 309.437 250.643 310.412 250.282 310.015C250.065 309.762 249.776 309.473 249.523 309.22C249.126 308.822 249.957 309.978 249.704 309.437C249.632 309.256 249.487 309.111 249.379 308.931C249.162 308.57 248.981 308.245 248.801 307.883C248.728 307.739 248.367 307.161 248.729 307.739C249.09 308.353 248.656 307.594 248.62 307.414C248.295 306.511 248.006 305.571 247.825 304.668C247.717 304.271 247.645 303.838 247.573 303.44C247.573 303.26 247.5 303.079 247.5 302.935C247.32 301.995 247.609 304.054 247.5 303.151C247.32 301.02 247.067 299.142 247.248 296.974C247.464 294.627 245.008 292.351 242.732 292.459C240.095 292.568 238.434 294.446 238.217 296.974C237.531 304.813 240.276 319.479 250.715 319.081C253.786 318.973 256.603 317.709 258.626 315.433C261.046 312.688 261.299 309.545 261.335 306.041C261.335 303.549 261.263 300.839 260.36 298.455C259.059 295.168 256.82 292.857 253.533 291.52C251.69 290.798 249.74 290.509 247.789 290.328C247.5 290.328 247.211 290.292 246.886 290.256C247.825 290.364 246.381 290.147 246.164 290.075C245.803 289.967 245.441 289.895 245.08 289.75C245.766 290.003 244.43 289.389 244.394 289.389C243.78 289.028 243.166 288.63 242.588 288.233C242.335 288.052 242.082 287.872 241.829 287.691C241.576 287.51 241.649 287.547 242.046 287.872C241.865 287.727 241.685 287.583 241.504 287.438C241.071 287.041 240.673 286.644 240.312 286.21C239.553 285.379 240.565 286.716 240.24 286.102C239.987 285.704 239.698 285.307 239.481 284.874C238.253 282.851 235.363 281.911 233.304 283.248C231.245 284.585 230.379 287.258 231.679 289.425L231.643 289.353Z" fill="#2B2C35"/>
</svg>
