<svg width="439" height="392" viewBox="0 0 439 392" fill="none" xmlns="http://www.w3.org/2000/svg">
<path d="M87.7838 0.262355C92.2717 0.683097 97.3768 -1.30842 100.995 3.09535C105.876 9.04184 110.532 15.4091 111.177 23.1507C111.738 30.1911 111.486 37.0352 115.889 43.2342C117.769 45.8708 116.927 49.6014 116.675 52.771C115.946 61.9712 118.161 70.1056 123.968 77.4265C127.446 81.8583 129.914 86.9913 129.101 92.9378C128.063 100.371 130.615 106.878 134.739 112.657C139.535 119.388 137.992 126.794 137.6 133.974C137.403 137.396 134.486 139.528 130.812 139.752C122.621 140.313 114.571 141.183 106.886 144.493C103.576 145.923 98.3585 142.95 96.0023 138.687C93.5901 134.311 91.7669 129.627 92.0474 124.437C92.2156 121.324 91.5986 118.491 89.0461 116.556C84.9508 113.47 84.6703 109.178 84.9789 104.634C85.3435 98.9124 84.6423 93.9196 80.2946 89.2914C74.5725 83.1486 75.0774 74.6776 74.4884 66.8799C74.2079 63.1493 73.3664 60.2602 70.7858 57.4272C65.9333 52.1258 61.9503 46.4318 65.2601 38.4657C66.7748 34.8193 64.3625 31.7058 62.2027 28.8448C59.7063 25.5069 57.9672 22.0007 58.388 17.4847C58.8929 12.0712 61.0527 8.00401 65.8772 5.33931C72.7213 1.58068 79.8739 -0.775476 87.8399 0.234305L87.7838 0.262355Z" fill="#FF545D"/>
<path d="M374.978 126.6C378.512 126.964 381.373 125.169 384.487 124.664C390.686 123.626 392.902 125.814 391.668 131.761C390.237 138.717 390.49 139.222 397.726 138.128C407.039 136.697 416.435 135.968 425.804 135.323C427.571 135.211 429.338 135.211 431.105 135.183C433.826 135.155 436.631 135.295 437.865 138.212C439.212 141.382 437.809 143.934 435.313 145.954C429.142 150.947 422.915 155.883 416.716 160.876C414.5 162.671 411.639 163.821 410.405 167.748C414.865 168.141 419.1 168.393 423.307 168.954C425.916 169.319 428.833 169.908 429.114 173.302C429.394 176.724 426.645 177.566 424.093 178.491C415.79 181.493 407.544 184.662 399.185 187.551C389.255 190.973 388.077 190.356 383.561 181.1C375.343 164.298 363.225 150.891 347.91 140.344C343.058 136.978 337.616 134.678 331.782 133.332C328.36 132.546 324.826 131.677 321.74 130.078C317.954 128.17 314.812 125.057 315.738 120.289C317.393 111.593 319.805 103.094 323.535 95.044C324.265 93.4732 325.078 91.65 327.238 91.7622C329.678 91.8744 330.997 93.7537 331.333 95.7733C332.062 100.065 332.343 104.413 332.876 109.349C336.943 108.199 339.468 105.31 342.188 102.898C349.257 96.6428 356.69 90.8927 364.88 86.1523C366.676 85.1145 368.443 84.0486 370.35 83.2913C376.914 80.5985 380.139 82.8705 379.298 89.8829C378.064 100.093 376.521 110.303 375.034 120.485C374.754 122.504 374.193 124.468 374.95 126.656L374.978 126.6Z" fill="#FFCA42"/>
<path d="M0.0662457 78.9685C0.262592 71.283 5.73224 66.1499 13.0532 67.7207C18.4387 68.8707 22.057 67.6366 25.5913 64.0182C28.3962 61.1571 31.0048 57.146 35.9135 59.0254C41.0746 61.0169 46.5442 63.0084 48.5918 69.039C50.8639 75.6868 53.5286 82.3064 53.0798 89.4871C52.6871 95.7982 54.9591 101.072 58.8299 105.644C63.43 111.085 65.6459 117.256 65.4496 124.212C65.2813 130.467 66.1508 135.853 70.2741 141.294C75.9681 148.812 72.3498 157.816 63.402 160.929C56.7823 163.229 49.8821 164.519 43.4027 167.437C38.8026 169.512 32.4914 166.315 30.528 161.097C29.0414 157.142 27.1059 153.748 24.3851 150.579C22.2534 148.111 21.44 145.025 21.2436 141.631C20.9351 136.694 20.0375 131.814 19.4765 126.877C19.196 124.297 17.513 122.614 15.7459 121.099C10.4165 116.499 8.56524 110.524 8.98598 103.764C9.37867 97.2849 8.31279 91.4786 3.01144 87.1029C0.178444 84.7748 -0.1862 81.6613 0.0662457 78.9685Z" fill="#FF545D"/>
<path d="M156.891 297.476C157.536 298.262 158.377 298.963 158.798 299.833C167.269 317.728 180.06 331.781 196.328 342.973C201.069 346.226 206.707 347.797 211.026 351.668C205.697 353.211 201.489 356.941 196.469 359.073C189.765 361.934 183.089 364.599 175.544 364.543C164.38 364.459 155.348 359.326 147.606 352.201C138.827 344.067 131.085 334.866 123.736 325.386C120.23 320.842 117.425 315.793 115.798 310.239C113.779 303.395 115.434 298.234 120.286 294.98C126.794 290.632 133.189 289.959 138.042 295.597C144.353 302.946 150.159 301.544 156.891 297.476Z" fill="#524945"/>
<path d="M133.752 146.935C139.979 146.795 145.898 151.816 146.711 157.959C147.02 160.287 147.048 162.559 147.749 164.887C151.171 176.359 144.944 185.896 132.911 187.467C128.563 188.028 124.216 187.832 119.84 188.954C114.875 190.244 110.331 186.766 109.966 181.436C109.574 175.742 108.901 170.553 105.282 165.757C103.01 162.727 104.805 159.67 107.358 157.174C111.481 153.162 116.726 151.031 121.916 149.123C125.702 147.749 129.938 147.581 133.724 146.935H133.752Z" fill="#FF545D"/>
<path d="M59.1606 169.907C69.8194 169.991 73.0171 172.375 76.1306 182.613C76.4672 183.707 76.8037 184.829 77.2806 185.895C80.5904 193.188 78.9916 197.508 71.5024 199.724C68.8657 200.509 66.8181 201.771 64.6303 203.23C55.402 209.429 45.6969 204.772 44.2383 193.693C44.0139 191.982 43.5932 190.243 42.9761 188.644C38.965 177.845 44.0419 170.3 55.6264 169.907C56.8045 169.879 57.9825 169.907 59.1606 169.907Z" fill="#FF545D"/>
<path d="M246.983 195.99C265.299 194.307 281.232 207.855 285.495 224.489C288.3 235.344 291.133 246.059 288.356 257.447C285.579 268.863 279.745 277.811 269.507 283.953C247.825 296.996 211.557 291.751 197.756 265.918C192.791 256.605 191.473 247.012 193.493 236.914C198.878 209.959 217.559 195.766 246.927 195.99H246.983Z" fill="#FE7211"/>
<path d="M282.523 202.329C275.539 202.329 269.901 198.486 265.722 193.942C262.272 190.212 261.094 184.321 259.186 179.273C258.737 178.066 258.962 175.963 259.775 175.065C264.516 169.82 268.835 163.733 274.642 160.059C279.775 156.805 286.563 158.263 292.453 160.76C298.231 163.228 303.953 171.727 302.635 177.505C301.317 183.228 301.541 189.118 299.858 194.728C297.334 198.038 294.332 200.422 289.816 200.057C287.152 199.861 284.852 201.179 282.523 202.329ZM295.09 176.748C295.23 172.344 291.219 167.912 287.18 167.997C283.87 168.053 282.692 170.381 282.299 173.074C281.934 175.822 287.208 181.629 289.928 181.404C292.593 181.18 295.09 180.198 295.062 176.776L295.09 176.748ZM280.728 187.267C280.953 183.368 277.194 179.413 272.959 179.525C269.985 179.581 268.19 181.32 268.134 184.518C268.05 188.529 271.023 192.203 274.866 192.203C277.979 192.203 280.672 191.166 280.728 187.295V187.267Z" fill="#2B2C35"/>
<path d="M214.196 179.023C210.718 170.019 211.699 166.289 219.357 161.099C221.32 159.753 223.115 158.351 224.742 156.64C225.976 155.377 227.519 154.227 229.342 154.255C236.719 154.452 243.451 157.397 250.183 159.893C253.072 160.959 253.297 164.914 252.483 167.775C251.305 171.842 251.389 175.853 251.614 179.949C251.866 184.913 249.454 189.542 245.022 190.243C238.15 191.337 231.811 195.208 224.574 194.142C219.974 192.01 217.169 188.616 216.496 183.455C216.271 181.828 216.103 179.893 214.224 178.967L214.196 179.023ZM225.191 172.039C224.63 172.347 223.34 172.656 222.723 173.441C220.675 176.162 222.723 178.995 222.947 181.744C223.143 184.1 225.163 185.306 227.295 185.082C229.455 184.857 232.203 185.166 233.325 182.557C234.447 179.949 228.838 172.319 225.191 172.011V172.039ZM245.218 171.141C245.331 168.252 245.303 165.447 241.656 165.167C239.104 164.998 236.102 164.914 235.177 168.112C234.307 171.057 238.374 176.779 241.151 176.751C244.938 176.695 244.489 173.385 245.246 171.141H245.218Z" fill="#2B2C35"/>
<path d="M282.525 202.333C284.825 201.183 287.125 199.865 289.818 200.061C294.362 200.397 297.335 198.041 299.859 194.731C300.561 196.695 301.795 198.294 303.029 199.949C305.918 203.848 304.824 206.989 300.308 208.42C294.446 210.299 287.125 207.803 282.525 202.333Z" fill="#69A5FF"/>
<path d="M214.195 179.022C216.074 179.92 216.27 181.855 216.467 183.51C217.14 188.671 219.973 192.065 224.545 194.197C221.628 197.703 218.29 196.301 215.092 194.898C211.418 193.3 207.21 192.122 205.527 187.97C204.293 184.941 205.219 182.22 208.501 180.846C210.324 180.088 212.596 180.621 214.195 179.022Z" fill="#69A5FF"/>
<path d="M295.085 176.747C295.085 180.198 292.617 181.179 289.952 181.376C287.232 181.6 281.958 175.794 282.323 173.045C282.688 170.352 283.894 168.052 287.204 167.968C291.243 167.884 295.254 172.316 295.113 176.719L295.085 176.747Z" fill="#FEFBE0"/>
<path d="M280.61 187.154C280.554 191.025 277.861 192.063 274.747 192.063C270.904 192.063 267.931 188.416 268.015 184.377C268.072 181.179 269.867 179.468 272.84 179.384C277.075 179.3 280.834 183.255 280.61 187.126V187.154Z" fill="#FEFBE0"/>
<path d="M225.082 171.923C228.7 172.231 234.338 179.861 233.216 182.469C232.094 185.078 229.346 184.77 227.186 184.994C225.054 185.218 223.034 184.012 222.838 181.656C222.614 178.907 220.594 176.074 222.614 173.353C223.231 172.54 224.521 172.259 225.082 171.951V171.923Z" fill="#FEFBE0"/>
<path d="M245.101 171.029C244.344 173.273 244.793 176.611 241.006 176.639C238.229 176.667 234.19 170.945 235.032 168C235.957 164.802 238.958 164.886 241.511 165.055C245.157 165.307 245.214 168.14 245.073 171.029H245.101Z" fill="#FEFBE0"/>
<path d="M377.836 219.637C374.694 201.236 365.494 185.557 352.872 171.981C341.736 160.032 328.048 151.421 313.658 144.072C303.168 138.686 291.92 135.601 279.831 136.246C271.023 136.695 262.16 136.414 253.352 136.33C241.375 136.218 230.099 139.191 219.384 144.268C200.675 153.132 185.949 166.792 173.411 183.088C156.918 204.546 149.289 229.033 148.559 255.849C148.054 275.007 154.309 292.566 164.014 308.834C167.072 313.939 170.522 318.82 174.281 323.42C181.602 332.312 190.774 340.474 200.507 346.897C204.602 349.59 208.922 351.778 213.213 354.078C217.982 355.677 222.778 357.248 227.547 358.875C241.459 363.559 256.213 364.793 270.771 365.999C285.328 367.205 300.419 369.028 315.257 370.207C325.551 371.02 341.399 375.508 351.329 372.226C360.389 369.225 362.072 357.444 364.204 349.45C368.72 332.424 370.038 314.669 373.544 297.446C377.05 280.224 378.481 262.16 378.313 244.377C378.228 236.13 379.21 227.715 377.836 219.693V219.637ZM208.501 180.844C210.324 180.087 212.596 180.62 214.195 179.021C210.717 170.017 211.699 166.287 219.356 161.098C221.32 159.751 223.115 158.349 224.742 156.638C225.976 155.375 227.519 154.225 229.342 154.254C236.719 154.45 243.451 157.395 250.183 159.891C253.072 160.957 253.296 164.912 252.483 167.773C251.304 171.841 251.389 175.852 251.613 179.947C251.865 184.912 249.453 189.54 245.021 190.241C238.149 191.335 231.81 195.206 224.573 194.14C221.684 197.646 218.318 196.244 215.121 194.841C211.446 193.242 205.556 187.913 205.556 187.913C205.556 187.913 205.247 182.163 208.529 180.788L208.501 180.844ZM288.386 257.448C285.609 268.864 279.775 277.812 269.537 283.954C247.854 296.997 211.586 291.752 197.786 265.919C192.821 256.606 191.503 247.013 193.523 236.915C198.908 209.96 217.589 195.767 246.957 195.991C265.273 194.308 281.205 207.856 285.469 224.489C288.274 235.345 291.107 246.059 288.33 257.448H288.386ZM300.335 208.417C294.473 210.296 287.152 207.8 282.552 202.33C275.567 202.33 269.929 198.488 265.75 193.944C262.3 190.213 261.122 184.323 259.214 179.274C258.766 178.068 258.99 175.964 259.803 175.066C264.544 169.821 268.863 163.734 274.67 160.06C279.803 156.806 286.591 158.265 292.481 160.761C298.259 163.229 303.981 171.728 302.663 177.507C301.345 183.229 301.569 189.119 299.886 194.729C300.587 196.692 301.822 198.291 303.056 199.946C305.945 203.845 304.851 206.987 300.335 208.417Z" fill="#FEFBE0"/>
<path d="M286.79 370.288C285.219 366.39 288.165 364.426 290.437 362.491C295.57 358.059 300.787 353.655 306.313 349.728C316.971 342.183 327.883 334.974 339.158 328.383C342.076 326.672 345.217 325.409 348.359 324.091C351.893 322.604 355.063 322.689 357.924 324.792C361.458 327.345 364.403 327.289 367.657 324.371C369.171 323.025 371.303 322.38 373.154 321.398C381.036 320.164 384.486 325.606 387.291 331.328C390.124 337.106 388.582 343.052 384.458 347.316C370.181 362.126 355.736 376.768 338.654 388.493C332.258 392.868 325.526 392.868 318.57 390.035C311.754 387.258 306.032 382.602 299.889 378.731C295.485 375.954 291.166 373.121 286.79 370.288Z" fill="#524945"/>
<path d="M224.047 299.438C222.196 301.598 220.653 304.066 220.176 306.927C219.756 309.424 219.98 311.948 220.934 314.332C221.888 316.717 223.318 318.792 225.113 320.644C227.217 322.803 229.545 324.009 232.546 324.374C235.043 324.655 237.932 324.655 240.316 323.729C243.401 322.551 245.169 320.083 245.505 316.857C245.758 314.585 245.477 312.088 245 309.873C244.467 307.264 243.205 304.768 241.326 302.86C237.399 298.821 230.947 297.25 225.562 298.569C223.767 299.017 222.533 301.121 223.122 302.888C223.711 304.655 225.534 305.805 227.441 305.329C227.666 305.272 227.918 305.244 228.171 305.16C228.704 304.992 227.329 305.188 228.255 305.16C228.647 305.16 229.04 305.104 229.433 305.104C229.882 305.104 230.302 305.16 230.751 305.16C231.312 305.16 229.938 304.992 230.835 305.16C231.116 305.216 231.396 305.272 231.705 305.329C232.069 305.413 232.462 305.525 232.827 305.637C233.051 305.721 233.276 305.805 233.5 305.861C234.005 306.002 232.995 305.609 233.444 305.833C234.229 306.198 234.959 306.619 235.688 307.096C236.361 307.544 235.379 306.731 235.688 307.096C235.8 307.236 235.996 307.376 236.137 307.516C236.389 307.769 236.613 308.021 236.838 308.274C236.473 307.853 236.838 308.246 236.866 308.33C237.006 308.554 237.146 308.779 237.287 309.003C237.427 309.227 237.539 309.452 237.651 309.676C237.988 310.321 237.539 309.199 237.764 309.957C238.016 310.77 238.212 311.584 238.381 312.397C238.493 312.958 238.325 311.556 238.381 312.481C238.381 312.678 238.409 312.874 238.437 313.07C238.465 313.547 238.493 314.052 238.521 314.529C238.521 314.921 238.549 315.314 238.521 315.707C238.521 315.903 238.521 316.1 238.521 316.296C238.521 316.857 238.493 316.043 238.577 316.071C238.745 316.156 238.044 317.362 238.409 316.801C238.773 316.24 238.212 317.025 238.24 317.025L238.493 316.717C238.493 316.717 238.24 316.969 238.128 317.081C238.296 316.941 238.661 316.801 238.128 317.025C237.96 317.109 237.567 317.193 238.156 317.025C237.707 317.137 237.259 317.25 236.81 317.362C236.249 317.502 237.623 317.362 236.613 317.362C236.389 317.362 236.165 317.39 235.968 317.39C235.435 317.39 234.874 317.39 234.341 317.39C233.837 317.39 233.36 317.334 232.883 317.306C232.322 317.278 233.64 317.53 232.715 317.278C232.518 317.222 232.322 317.165 232.098 317.137C231.508 316.997 231.901 317.081 232.069 317.137C231.845 317.025 231.621 316.913 231.424 316.773C231.256 316.661 230.751 316.268 231.312 316.745C231.144 316.604 230.947 316.436 230.779 316.296C230.162 315.735 229.573 315.118 229.04 314.473C228.928 314.332 228.563 313.799 228.984 314.417C228.872 314.276 228.76 314.108 228.675 313.968C228.423 313.603 228.171 313.21 227.946 312.79C227.862 312.621 227.778 312.481 227.694 312.313C227.525 312.004 227.385 311.612 227.61 312.173C227.441 311.724 227.273 311.247 227.161 310.77C227.105 310.546 227.077 310.349 227.021 310.125C227.021 310.574 226.852 309.48 227.021 310.125C227.021 309.62 227.021 309.143 227.021 308.638C227.021 308.246 226.88 308.414 226.993 308.751C226.936 308.61 227.133 308.049 227.161 307.909C227.217 307.713 227.273 307.544 227.329 307.348C227.413 307.124 227.638 306.507 227.385 307.068C227.61 306.591 227.862 306.114 228.143 305.637C228.283 305.385 228.451 305.16 228.619 304.936C228.76 304.74 228.76 304.74 228.619 304.936C228.788 304.74 228.928 304.543 229.096 304.375C230.274 302.972 230.555 300.756 229.096 299.41C227.778 298.204 225.394 297.923 224.131 299.41L224.047 299.438Z" fill="#252527"/>
</svg>
