<svg width="569" height="392" viewBox="0 0 569 392" fill="none" xmlns="http://www.w3.org/2000/svg">
<path d="M293.192 351.35C295.791 349.482 298.819 350.189 301.645 350.138C319.106 349.836 336.441 348.322 353.625 345.092C354.66 348.725 354.155 352.485 354.155 356.169C354.155 359.323 355.417 361.14 358.319 362.048C359.328 362.376 360.362 362.629 361.321 363.108C365.889 365.329 368.008 368.76 367.554 373.151C367.1 377.668 364.576 380.443 359.454 381.68C355.064 382.74 350.572 383.042 346.055 383.143C334.675 383.396 323.295 383.749 311.915 384.254C297.759 384.859 295.766 383.471 294.025 369.618C293.268 363.588 293.444 357.456 293.192 351.375V351.35Z" fill="#524945"/>
<path d="M215.771 328.034C217.537 327.555 218.748 328.564 220.06 329.498C235.755 340.929 252.964 348.499 272.47 350.366C273.201 350.441 273.883 351.022 274.564 351.35C272.041 359.626 266.994 366.414 261.215 372.571C254.302 379.939 249.104 380.696 239.944 376.457C227.025 370.451 214.257 364.194 204.037 353.823C201.817 351.552 199.495 349.407 198.032 346.556C193.894 338.481 197.855 331.491 206.889 331.037C208.428 330.962 210.043 331.264 211.582 331.542C214.484 332.097 215.216 330.179 215.796 328.034H215.771Z" fill="#524945"/>
<path d="M380.845 257.28C380.668 241.787 377.236 227.076 370.6 212.996C364.115 199.218 353.618 188.747 342.566 178.956C327.83 165.911 309.813 159.779 290.359 159.123C269.213 158.416 249.784 164.851 232.247 176.584C227.225 179.94 221.245 182.009 217.258 186.778C212.01 193.036 206.282 199.193 202.093 205.956C193.514 219.758 186.045 234.065 184.834 251.274C184.026 262.705 185.414 273.227 189.048 283.648C191.293 290.108 194.599 296.189 197.45 302.447C198.989 305.828 201.109 308.781 203.456 311.708C205.273 313.953 207.215 316.3 209.108 318.571C211 320.842 212.59 323.113 214.735 324.98C221.169 330.607 227.982 335.25 235.577 339.212C242.062 342.593 248.875 345.343 255.941 347.286C260.533 348.548 265.201 349.482 269.92 350.062C271.863 350.213 273.78 350.516 275.799 350.693C279.634 351.021 283.571 351.147 287.406 351.071C291.545 350.97 295.784 350.895 299.897 350.567C303.984 350.239 307.921 349.835 312.009 349.835C316.172 349.557 320.336 349.381 324.499 349.027C332.977 348.321 341.456 347.261 349.858 345.823C351.12 345.596 352.382 345.369 353.643 345.142C358.614 344.788 363.585 345.318 368.556 343.728C375.293 341.558 379.129 337.824 379.23 330.96C379.507 313.802 379.028 296.643 380.744 279.51C381.475 272.167 380.945 264.698 380.845 257.28ZM297.272 194.601C300.982 192.254 310.873 195.358 312.488 199.319C312.69 199.799 312.69 200.329 312.791 200.833C312.488 203.685 310.495 204.467 308.35 203.558C305.019 202.145 301.915 200.278 298.08 200.43C296.692 200.48 295.834 199.193 295.557 197.831C295.279 196.367 296.187 195.282 297.272 194.601ZM252.66 198.966C254.326 195.156 261.694 191.598 265.403 192.885C266.993 193.44 268.204 194.424 268.103 196.317C268.053 197.78 267.27 198.89 265.781 199.067C262.501 199.496 259.877 201.111 257.379 203.155C256.824 203.609 255.915 203.584 255.486 203.71C252.887 203.483 251.651 201.187 252.635 198.966H252.66ZM322.152 279.485C317.08 290.714 307.643 295.886 296.591 298.864C292.806 299.873 288.718 299.697 286.523 299.899C275.118 299.697 265.454 298.864 257.228 293.489C243.703 284.632 235.653 272.722 237.697 255.539C239.842 237.522 248.219 224.25 265.327 217.033C272.216 214.131 279.306 214.283 286.422 215.14C295.203 216.2 303.505 219.329 311.05 223.644C320.992 229.321 324.877 239.415 326.669 250.088C328.385 260.232 326.417 270.023 322.127 279.485H322.152Z" fill="#FEFCE1"/>
<path d="M106.256 91.1896C106.685 94.9998 105.347 97.9016 102.017 99.895C99.9728 101.106 97.9793 102.393 95.9859 103.68C91.6963 106.456 87.331 107.616 82.7385 104.412C82.5367 104.26 82.2591 104.159 82.032 104.059C75.1938 101.409 73.2761 102.065 73.1247 109.408C72.9733 116.599 68.9612 119.703 63.5109 122.403C58.2624 125.002 53.3672 124.598 48.5981 121.192C42.3655 116.751 36.1582 112.335 30.834 106.758C24.8033 100.45 18.5959 94.3185 12.3381 88.2373C8.62887 84.629 7.19058 80.3898 7.64477 75.3432C7.79617 73.7283 7.87186 72.0124 9.20921 71.0031C13.8269 67.5209 18.3689 63.8622 23.3146 60.9351C25.8379 59.4464 28.8658 60.3547 31.3134 62.5753C34.6442 65.5528 38.1012 68.4546 41.76 71.0031C46.7309 74.4601 48.6738 73.4003 48.9766 67.4705C49.0271 66.4107 48.9009 65.3509 49.0271 64.2911C49.5822 58.9417 53.1401 56.267 58.3381 57.5286C60.3567 58.0081 62.1988 59.2697 64.1922 59.9258C67.1445 60.8594 69.1884 60.4304 69.7182 56.6202C70.5005 50.9176 71.5855 45.2149 72.8976 39.6131C74.7649 31.589 79.004 28.6367 87.9113 28.6367C94.27 28.6367 98.2569 32.1694 100.099 39.6636C101.79 46.5522 102.319 53.6427 103.304 60.6323C104.565 69.4891 103.606 78.5478 105.877 87.2785C106.205 88.5401 106.155 89.9027 106.281 91.2148L106.256 91.1896Z" fill="#2BB4FF"/>
<path d="M449.604 92.8281C445.617 94.7206 444.027 97.2944 441.857 99.1616C437.441 102.972 433.707 102.593 430.906 97.4962C429.089 94.1907 428.029 90.4562 426.162 85.7376C424.371 89.6992 423.21 92.5506 421.822 95.301C418.693 101.433 416.523 102.745 409.786 101.634C405.395 100.903 401.055 99.5906 396.841 98.1523C393.258 96.9411 391.87 93.9888 393.233 90.6581C400.828 72.1117 408.448 53.5906 416.245 35.12C417.558 31.9911 419.501 29.064 421.469 26.2884C425.203 21.0147 428.837 20.7371 433.025 25.6576C437.113 30.4771 441.024 35.4732 444.431 40.7974C446.828 44.5572 448.392 44.3805 451.774 41.832C456.997 37.8956 462.523 34.1611 469.058 32.4705C474.509 31.0575 478.218 33.3032 478.117 38.9554C477.865 52.657 479.253 66.3586 477.057 80.0854C475.846 87.5796 475.341 95.2253 473.575 102.644C471.708 110.39 469.639 112.157 461.791 112.888C460.731 112.989 459.672 112.914 458.612 112.939C450.184 112.939 449.705 112.485 449.629 103.931C449.604 100.549 449.629 97.1682 449.629 92.8786L449.604 92.8281Z" fill="#FFCA42"/>
<path d="M397.069 39.9926C395.681 31.2872 393.763 23.1621 384.023 19.1501C377.639 16.5258 371.129 14.6333 364.493 12.9427C362.55 12.4381 360.304 12.9427 358.21 13.2203C345.214 15.0118 337.569 24.3229 330.251 33.7096C323.842 41.9103 323.792 51.8017 323.893 61.6931C323.943 67.3706 325.936 72.0387 329.469 76.1264C332.245 79.331 335.096 82.5861 338.477 85.0842C354.929 97.2466 372.466 97.5494 387.808 78.9778C395.252 69.9696 397.775 59.3969 397.119 48.4457C397.119 45.2664 397.472 42.5412 397.043 39.9674L397.069 39.9926ZM368.505 57.5044C367.546 58.7913 366.461 60.0025 364.972 60.709C363.786 61.2641 362.928 61.5417 361.591 61.6174C360.935 61.6679 360.228 61.5669 359.597 61.3651C358.79 61.4408 358.008 61.3398 357.175 61.1884C356.998 61.1632 356.822 61.1127 356.645 61.0623C356.14 60.8856 355.611 60.6838 355.156 60.381C354.223 59.7502 353.769 59.296 353.138 58.3876C352.81 57.9334 352.608 57.353 352.431 56.8483C352.154 56.0409 352.053 55.082 352.128 54.1989C352.204 53.1643 352.355 52.0793 352.683 51.0952C352.986 50.1616 353.39 49.2027 353.996 48.3953C354.399 47.8401 354.828 47.2598 355.308 46.7803C355.787 46.3009 356.368 45.8719 356.923 45.4682C357.705 44.8879 358.638 44.4841 359.547 44.1813C360.455 43.8533 361.515 43.7019 362.499 43.8028C363.887 43.929 365.25 44.2318 366.41 45.0392C367.521 45.8215 368.429 46.6794 369.161 47.8906C370.902 50.8176 370.574 54.8045 368.555 57.5044H368.505Z" fill="#FF545D"/>
<path d="M322.404 15.9687C322.859 18.8452 321.925 21.8984 320.739 24.8255C317.383 33.2281 316.121 37.5934 306.079 33.6571C304.464 33.0262 302.42 33.329 300.578 33.43C296.364 33.6571 293.765 36.3318 292.503 39.9654C291.343 43.2204 292.68 46.0718 295.304 48.4437C298.408 51.2698 301.89 52.809 306.104 52.4305C309.283 52.1529 311.554 53.5408 313.825 55.6604C316.374 58.0575 314.658 60.4294 314.658 62.9275C314.633 71.6329 309.233 77.058 303.101 81.7514C297.6 85.9401 291.418 86.6971 284.403 84.6784C272.216 81.1458 262.4 74.8628 255.461 64.1134C248.85 53.894 247.563 42.9176 251.298 31.5627C256.168 16.8266 265.882 6.38008 281.199 2.51941C291.368 -0.0543658 301.865 -1.16462 312.387 1.66149C319.124 3.47827 322.531 7.9193 322.455 15.9434L322.404 15.9687Z" fill="#1FFFD6"/>
<path d="M174.565 76.5287C174.565 76.2764 174.565 75.9988 174.565 75.7465C174.111 70.7756 172.118 68.656 167.096 68.4289C165.053 68.328 163.009 68.328 160.965 68.328C159.098 68.4794 157.205 68.4541 155.313 68.6308C153.042 68.8326 150.619 69.4382 148.55 68.2018C147.995 67.8738 147.667 67.142 147.869 66.5112C148.399 64.9215 150.089 64.4673 151.553 64.2402C153.572 63.9374 155.615 63.9122 157.659 63.9374C159.552 63.9374 161.444 63.8869 163.337 63.786C163.841 63.7103 164.346 63.6599 164.825 63.5842C171.689 62.5748 173.909 56.9226 169.544 51.5227C168.762 50.5639 167.929 49.7564 166.97 49.1003C165.33 48.6714 163.69 48.3686 161.999 48.2172C160.384 48.3938 158.719 48.3938 157.104 48.3938C154.076 48.4191 151.073 48.7976 148.02 48.6714C146.481 48.6209 146.077 46.7284 147.263 45.8957C148.298 45.164 149.66 44.9873 150.897 44.8864C152.234 44.7603 153.597 44.8107 154.934 44.8864C156.196 44.9369 157.432 44.9369 158.694 44.9369C160.965 44.5584 163.286 44.3818 165.633 44.5079C169.267 44.735 171.739 42.8678 172.749 39.4108C176.004 28.2326 169.595 18.0131 158.189 16.1207C156.625 15.8683 155.01 16.0702 153.445 15.9188C144.942 15.1113 136.615 16.802 128.237 17.6599C122.005 18.2907 117.614 22.9841 117.463 29.4437C116.958 49.2517 117.286 69.0345 120.541 88.6406C121.324 93.4349 124.074 96.0339 128.717 97.0685C138.633 99.289 148.55 99.4404 158.517 97.3461C173.607 94.1667 175.474 91.7948 174.616 76.554L174.565 76.5287Z" fill="#FFCA42"/>
<path d="M545.613 58.3856C536.983 53.6165 527.571 50.9166 518.083 48.5447C508.419 46.1475 503.221 48.1409 497.821 56.3669C496.963 57.679 496.257 59.1426 495.626 60.6061C488.762 76.6544 483.337 93.182 480.41 110.416C479.578 115.387 482.025 119.853 486.365 122.427C493.91 126.868 502.035 130.174 510.665 131.763C523.534 134.135 530.246 130.502 533.904 119.879C536.15 113.318 535.141 108.751 530.675 105.874C530.195 105.698 529.691 105.572 529.211 105.395C529.06 105.344 528.883 105.294 528.732 105.243C526.637 104.84 524.593 104.436 522.55 103.881C520.506 103.301 518.462 102.72 516.418 102.165C514.904 101.736 512.986 101.282 511.926 100.02C511.245 99.238 511.397 97.7745 512.582 97.5221C516.241 96.7399 519.193 98.9857 522.449 100.197C522.575 100.247 522.726 100.273 522.878 100.323C524.417 100.777 525.931 101.181 527.495 101.509C534.308 102.897 537.084 101.03 539.304 94.3175C540.087 91.9456 540.515 89.7251 539.405 87.4037C539.38 87.328 539.38 87.2775 539.33 87.227C539.33 87.227 539.33 87.227 539.33 87.2018C539.254 87.1261 539.229 87.0252 539.33 87.2018C539.229 87.1009 539.128 86.9747 539.027 86.8738C538.901 86.7476 538.774 86.6214 538.648 86.4953C538.522 86.3943 538.396 86.2682 538.27 86.1672C538.194 86.1168 538.144 86.0663 538.068 86.0158C537.816 85.8392 537.538 85.6626 537.286 85.4859C536.63 85.057 535.948 84.6785 535.292 84.2748C534.964 84.0729 534.611 83.8963 534.283 83.7196C534.207 83.6944 534.157 83.6692 534.081 83.6439C534.056 83.6439 534.031 83.5935 534.005 83.5935C531.76 82.786 529.489 82.0038 527.243 81.1206C525.123 80.2879 523.054 79.43 520.859 78.8496C519.067 78.3702 517.326 77.7394 516.241 76.1749C515.585 75.2161 516.468 73.9544 517.528 73.9292C519.648 73.9292 521.616 74.8628 523.559 75.645C525.906 76.6039 528.303 77.4618 530.649 78.4459C532.92 79.3795 535.191 80.3384 537.437 81.2972C537.715 81.3477 537.992 81.3982 538.245 81.4991C538.295 81.4991 538.32 81.5496 538.371 81.5748C538.674 81.5748 538.976 81.6253 539.279 81.6253C539.481 81.6253 539.683 81.6253 539.91 81.6253C540.011 81.6253 540.112 81.6253 540.213 81.6253C540.288 81.6253 540.314 81.6253 540.339 81.6253C540.339 81.6253 540.364 81.6253 540.415 81.6253C540.516 81.6253 540.616 81.6 540.692 81.5748C540.894 81.5243 541.071 81.4991 541.273 81.4486C541.626 81.3477 541.979 81.2215 542.332 81.0954C542.383 81.0701 542.66 80.944 542.686 80.944C542.862 80.8683 543.039 80.7673 543.215 80.6916C543.291 80.6664 543.342 80.6159 543.417 80.5907C546.647 77.5627 548.439 73.5254 549.852 69.2863C551.997 62.978 551.593 61.8425 545.688 58.5874L545.613 58.3856Z" fill="#FE7211"/>
<path d="M205.425 89.0445C203.306 89.0445 201.186 89.1454 199.092 89.0445C194.045 88.7922 190.613 86.2689 189.226 81.3736C188.443 78.598 187.333 75.6962 187.434 72.9206C188.141 55.7368 184.734 38.7297 185.668 21.5459C186.122 13.0171 192.38 5.87616 200.707 4.8416C202.271 4.63974 203.861 4.66497 205.425 4.36217C212.718 2.92388 215.039 4.58927 215.948 11.6545C217.083 20.5366 217.941 29.4439 217.588 38.4269C217.512 40.2437 217.815 42.1109 218.143 43.9025C218.875 47.7631 220.893 49.9079 225.233 49.4033C228.11 49.0752 231.037 49.4537 233.939 49.3276C237.421 49.1762 239.768 50.9425 240.373 54.0209C241.231 58.5377 243.527 62.903 241.938 67.8487C241.231 70.044 241.483 72.542 241.408 74.914C241.181 81.2727 240.752 82.2568 234.898 84.1241C225.359 87.1773 215.569 89.095 205.476 89.095L205.425 89.0445Z" fill="#7FE27C"/>
<path d="M286.525 299.878C275.119 299.676 265.455 298.843 257.229 293.468C243.704 284.612 235.655 272.701 237.699 255.518C239.843 237.501 248.221 224.229 265.329 217.012C272.217 214.11 279.308 214.262 286.424 215.12C295.205 216.179 303.506 219.308 311.051 223.623C320.993 229.301 324.879 239.394 326.67 250.067C328.386 260.211 326.418 270.002 322.128 279.464C317.057 290.693 307.619 295.865 296.567 298.843C292.782 299.852 288.695 299.676 286.499 299.878H286.525Z" fill="#FE7211"/>
<path d="M312.789 200.839C312.486 203.665 310.493 204.472 308.348 203.564C305.017 202.151 301.913 200.284 298.078 200.435C296.69 200.486 295.832 199.199 295.555 197.836C295.277 196.373 296.185 195.287 297.27 194.606C300.98 192.26 310.871 195.363 312.486 199.325C312.688 199.804 312.688 200.334 312.789 200.839Z" fill="#2B2C35"/>
<path d="M255.511 203.711C252.912 203.484 251.676 201.188 252.66 198.968C254.325 195.157 261.693 191.6 265.403 192.886C266.992 193.442 268.204 194.426 268.103 196.318C268.052 197.782 267.27 198.892 265.781 199.069C262.501 199.498 259.877 201.112 257.379 203.156C256.823 203.611 255.915 203.585 255.486 203.711H255.511Z" fill="#2B2C35"/>
<path d="M269.901 314.081C274.216 315.116 278.632 315.091 283.023 314.863C285.092 314.737 287.262 314.788 289.331 314.535C289.861 314.46 289.331 314.535 289.356 314.485H289.482C289.861 314.636 289.684 314.51 288.927 314.157L288.725 313.854C288.498 313.45 288.473 313.425 288.599 313.854C288.549 313.879 288.599 313.274 288.574 313.804C288.523 314.762 288.7 315.747 288.7 316.705C288.7 317.513 288.7 318.295 288.624 319.103C288.624 319.178 288.549 319.834 288.599 319.456C288.65 319.077 288.549 319.708 288.549 319.809C288.473 320.263 288.372 320.717 288.246 321.146C288.145 321.55 287.994 321.929 287.842 322.307C288.019 321.878 287.615 322.736 287.565 322.862C287.136 323.67 286.606 324.402 286.051 325.133C286.48 324.578 285.95 325.209 285.798 325.386C285.748 325.436 285.445 325.688 285.748 325.461C286.076 325.209 285.596 325.537 285.521 325.588C285.445 325.638 284.865 325.89 285.218 325.739C285.546 325.613 285.041 325.764 284.966 325.789C284.839 325.815 284.713 325.84 284.587 325.865C285.218 325.663 284.638 325.865 284.385 325.865C284.057 325.865 283.754 325.815 283.426 325.84C283.855 325.991 282.972 325.84 283.426 325.84C283.25 325.789 283.073 325.764 282.896 325.714C282.669 325.663 281.963 325.36 282.493 325.613C282.341 325.537 282.19 325.461 282.038 325.386C281.71 325.209 281.584 324.881 281.862 325.285C281.635 324.982 281.332 324.73 281.105 324.427C281.357 324.755 281.054 324.326 281.004 324.301C280.827 324.048 280.651 323.796 280.499 323.518C280.096 322.837 279.919 322.459 279.818 321.828C279.717 321.197 279.793 319.607 279.818 318.598C279.869 317.336 279.919 316.075 279.919 314.813C279.894 313.173 278.481 311.583 276.765 311.659C275.049 311.735 273.585 313.047 273.611 314.813C273.661 317.412 273.257 320.061 273.611 322.66C273.964 325.259 275.276 327.202 276.84 329.145C279.54 332.451 285.193 333.107 288.776 330.937C290.593 329.852 291.98 327.858 292.964 326.042C294.1 323.922 294.68 321.651 294.907 319.279C295.109 317.059 295.059 314.687 294.706 312.492C294.201 309.363 291.501 308.177 288.599 308.278C282.922 308.454 276.992 309.337 271.542 308.025C269.952 307.647 268.059 308.53 267.656 310.221C267.252 311.911 268.135 313.677 269.851 314.106L269.901 314.081Z" fill="#2B2C35"/>
<path d="M82.3037 202.687C88.3849 205.387 96.5857 208.062 103.02 205.135C105.695 203.924 107.991 201.501 108.521 198.574C109.101 195.37 107.941 191.913 105.014 190.273C99.5632 187.219 90.1512 191.358 90.126 197.994C90.126 201.198 91.7661 204.63 93.3054 207.355C94.8446 210.081 96.7371 212.478 99.0837 214.37C102.011 216.717 105.367 218.256 109.101 218.685C113.088 219.139 116.873 217.878 120.532 216.439C122.122 215.808 123.232 214.32 122.727 212.553C122.323 211.039 120.431 209.727 118.841 210.358C114.804 211.948 110.792 213.361 106.578 211.645C102.793 210.106 100.068 206.825 98.251 203.268C97.5445 201.88 96.1062 199.483 96.409 197.868C96.6614 196.53 99.0333 195.773 100.219 195.597C101.203 195.445 102.213 195.521 102.364 196.657C102.541 197.994 101.304 199.028 100.169 199.508C98.024 200.441 95.3997 200.038 93.2044 199.609C90.5549 199.104 87.9307 198.322 85.4579 197.212C83.8934 196.53 82.0766 196.757 81.143 198.347C80.3608 199.685 80.7141 201.981 82.2785 202.662L82.3037 202.687Z" fill="#7FE27C"/>
<path d="M433.009 272.25C435.709 273.739 439.09 274.168 442.118 274.319C445.146 274.471 448.174 273.739 450.42 271.644C452.313 269.878 453.272 267.304 453.675 264.781C454.104 262.056 454.735 258.397 452.514 256.277C450.294 254.158 446.231 254.713 443.683 255.949C440.983 257.262 438.964 259.861 438.359 262.813C437.047 269.298 442.219 274.723 447.998 276.716C454.18 278.836 461.296 276.262 464.601 270.635C466.67 267.128 461.22 263.948 459.151 267.456C457.637 270.03 454.836 271.316 451.959 271.14C449.083 270.963 445.601 268.944 444.617 266.144C444.188 264.958 444.44 263.519 445.247 262.51C445.651 262.005 446.257 261.602 446.862 261.375C447.417 261.173 447.947 261.375 448.578 261.173C449.209 260.971 448.679 261.248 448.679 261.173C448.679 261.173 447.72 260.088 447.745 260.088C447.695 260.088 447.745 260.895 447.72 261.047C447.72 261.677 447.645 262.712 447.594 263.09C447.417 264.478 447.014 265.992 446.358 266.774C445.399 267.96 443.759 268.087 442.144 268.011C440.226 267.91 437.905 267.733 436.214 266.8C432.656 264.832 429.477 270.282 433.035 272.25H433.009Z" fill="#FE7211"/>
<path d="M143.835 277.894C141.69 279.03 139.52 280.19 137.173 280.897C135.458 281.427 132.909 282.083 131.294 280.998C129.931 280.09 129.73 277.995 129.629 276.506C129.477 273.907 129.73 271.359 130.31 268.81C131.218 264.849 125.137 263.284 124.204 267.271C122.059 276.658 118.753 285.691 114.186 294.195C113.353 295.759 112.47 297.299 111.537 298.838C110.325 298.56 109.064 298.459 107.777 298.459C107.474 298.459 107.146 298.459 106.843 298.459C100.838 298.712 94.8322 301.74 91.8547 307.064C89.5333 311.227 91.2239 316.148 96.3462 316.476C100.308 316.728 104.623 315.567 108.231 314.053C111.966 312.464 117.214 309.966 117.063 305.196C117.037 304.288 116.785 303.531 116.432 302.825C117.441 301.235 118.375 299.62 119.207 298.131C121.655 293.64 123.8 288.997 125.617 284.203C126.121 284.884 126.727 285.489 127.433 286.019C130.36 288.189 133.792 288.29 137.224 287.458C132.48 296.213 129.906 306.029 129.805 316.047C125.49 315.567 121.024 316.551 117.416 318.974C115.069 320.538 113.101 322.607 111.612 325.004C110.174 327.351 108.509 330.884 109.896 333.558C111.335 336.309 114.842 337.192 117.719 336.965C120.772 336.713 123.598 335.501 126.298 334.114C129.175 332.65 134.448 329.345 135.331 325.787C135.76 325.08 135.912 324.247 135.811 323.44C135.912 322.809 135.887 322.153 135.76 321.472C136.038 320.992 136.189 320.463 136.164 319.933C135.407 306.71 139.444 293.312 147.67 282.89C149.84 280.14 147.14 276.204 143.81 277.97L143.835 277.894Z" fill="#FF545D"/>
<path d="M438.01 174.718C436.446 172.472 434.402 170.756 432.787 168.586C431.248 166.517 430.264 164.12 429.683 161.572C428.901 158.216 423.804 157.989 423.173 161.572C422.34 166.189 421.684 170.832 421.23 175.526C420.801 179.714 421.054 184.281 419.842 188.319C419.842 188.319 419.842 188.319 419.842 188.344C413.206 187.284 407.604 191.7 403.92 197.377C402.104 200.153 400.463 203.635 401.548 207.092C402.734 210.852 406.469 211.937 409.8 211.634C416.158 211.079 423.526 207.092 425.621 200.128C426.252 197.958 425.924 195.788 424.889 194.173C425.621 192.583 426.252 190.968 426.655 189.303C427.665 185.19 427.538 180.749 427.942 176.535C428.018 175.601 428.169 174.668 428.27 173.734C429.128 174.844 430.037 175.929 431.046 177.014C432.535 178.629 433.746 180.219 433.771 182.591C433.796 185.366 432.812 188.066 431.929 190.615C431.298 192.457 432.636 194.602 434.301 195.081C436.193 195.636 437.808 194.4 438.464 192.533C440.483 186.679 441.896 180.118 438.136 174.693L438.01 174.718Z" fill="#FFCA42"/>
<path d="M156.826 151.1C159.602 154.91 162.68 158.493 166.061 161.774C167.247 162.934 169.367 163.035 170.528 161.774C171.688 160.512 171.789 158.544 170.528 157.307C167.878 154.734 165.405 151.958 163.134 149.031L163.639 149.662C163.185 149.081 162.731 148.476 162.302 147.896C161.797 147.214 161.267 146.684 160.409 146.457C159.652 146.255 158.643 146.331 157.987 146.785C157.331 147.239 156.725 147.87 156.548 148.678C156.372 149.485 156.372 150.444 156.876 151.1H156.826Z" fill="#2BB4FF"/>
<path d="M418.592 344.209C422.352 342.544 426.112 340.878 429.872 339.213C430.553 338.91 431.133 338.002 431.31 337.32C431.512 336.563 431.436 335.554 430.982 334.898C430.528 334.242 429.897 333.636 429.089 333.46C428.206 333.258 427.474 333.409 426.667 333.788C422.907 335.453 419.147 337.119 415.388 338.784C414.706 339.087 414.126 339.995 413.949 340.676C413.748 341.433 413.823 342.443 414.277 343.099C414.732 343.755 415.362 344.361 416.17 344.537C417.053 344.739 417.785 344.588 418.592 344.209Z" fill="#FF545D"/>
<path d="M490.458 234.12C493.006 237.223 495.53 240.327 498.078 243.431C498.558 244.011 499.592 244.364 500.299 244.364C501.081 244.364 501.989 244.011 502.519 243.431C503.049 242.85 503.478 242.043 503.453 241.21C503.402 240.327 503.074 239.671 502.519 238.99C499.971 235.886 497.447 232.782 494.899 229.679C494.419 229.098 493.385 228.745 492.678 228.745C491.896 228.745 490.988 229.098 490.458 229.679C489.928 230.259 489.499 231.067 489.524 231.899C489.574 232.782 489.902 233.438 490.458 234.12Z" fill="#2BB4FF"/>
<path d="M61.3392 265.384C58.2355 267.706 55.1066 270.027 52.0029 272.348C51.3216 272.853 50.7918 273.383 50.5647 274.241C50.3628 274.998 50.4385 276.007 50.8927 276.663C51.3469 277.319 51.9777 277.925 52.7852 278.102C53.5926 278.278 54.5515 278.278 55.2075 277.774C58.3112 275.452 61.4401 273.131 64.5438 270.809C65.2251 270.305 65.755 269.775 65.9821 268.917C66.184 268.16 66.1083 267.15 65.6541 266.494C65.1999 265.838 64.569 265.233 63.7616 265.056C62.9541 264.879 61.9953 264.88 61.3392 265.384Z" fill="#1FFFD6"/>
<path d="M152.26 380.293C149.182 382.488 145.977 384.431 142.596 386.147C141.132 386.904 140.577 389.099 141.46 390.462C142.419 391.976 144.211 392.405 145.775 391.598C149.131 389.882 152.361 387.939 155.439 385.743C156.121 385.264 156.651 384.684 156.878 383.851C157.08 383.094 157.004 382.085 156.55 381.429C155.692 380.091 153.673 379.284 152.235 380.293H152.26Z" fill="#FE7211"/>
<path d="M346.327 144.416C347.69 145.425 349.532 145.45 351.096 145.072C352.181 144.819 353.191 144.289 354.25 143.961C354.806 143.785 355.386 143.633 355.966 143.532C356.168 143.482 357.152 143.204 356.294 143.457C356.572 143.381 356.925 143.381 357.228 143.381C357.859 143.331 358.49 143.331 359.095 143.381C359.373 143.381 359.776 143.381 360.029 143.457C359.575 143.381 359.524 143.381 359.877 143.457C360.029 143.457 360.18 143.507 360.332 143.532C361.946 143.835 363.814 143.078 364.217 141.337C364.571 139.798 363.738 137.779 362.022 137.451C359.247 136.947 356.471 136.947 353.695 137.603C352.585 137.855 351.55 138.284 350.491 138.688C350.264 138.763 350.036 138.864 349.809 138.915C349.607 138.965 349.204 138.99 349.027 139.091C349.532 139.041 349.633 139.016 349.279 139.016C348.926 139.016 349.027 139.016 349.557 139.066C349.229 138.965 349.33 139.016 349.784 139.192C349.683 139.142 349.557 139.066 349.456 138.99C348.85 138.536 347.74 138.486 347.034 138.662C346.327 138.839 345.52 139.419 345.141 140.101C344.258 141.741 344.864 143.356 346.277 144.416H346.327Z" fill="#FF545D"/>
<path d="M27.5056 351.889C31.6691 352.57 35.8326 353.252 40.0212 353.933C40.8792 354.084 41.6614 354.084 42.4436 353.605C43.0997 353.226 43.7305 352.469 43.8819 351.712C44.2352 350.199 43.4277 348.104 41.6866 347.827C37.5231 347.145 33.3597 346.464 29.171 345.783C28.3131 345.631 27.5308 345.631 26.7486 346.111C26.0925 346.489 25.4617 347.246 25.3103 348.003C24.9571 349.517 25.7645 351.612 27.5056 351.889Z" fill="#2BB4FF"/>
<path d="M0.865764 222.43C4.6255 225.433 8.5871 228.107 12.8515 230.328C14.315 231.085 16.3589 230.757 17.1663 229.192C17.9233 227.729 17.5953 225.685 16.0309 224.878C14.0627 223.843 12.145 222.708 10.2777 221.496C9.34408 220.891 8.4357 220.26 7.5273 219.604C7.07311 219.276 6.61892 218.948 6.18995 218.62C6.08902 218.544 5.96284 218.443 5.86191 218.367C6.21517 218.645 6.26563 218.696 6.0133 218.468C5.7862 218.292 5.58435 218.115 5.35726 217.938C4.67596 217.409 4.01989 217.005 3.13673 217.005C2.3545 217.005 1.4461 217.358 0.916202 217.938C-0.143588 219.074 -0.471619 221.295 0.916202 222.405L0.865764 222.43Z" fill="#FE7211"/>
<path d="M512.856 301.538H524.766C526.407 301.538 527.996 300.099 527.921 298.384C527.845 296.668 526.533 295.229 524.766 295.229H512.856C511.216 295.229 509.627 296.668 509.702 298.384C509.778 300.099 511.09 301.538 512.856 301.538Z" fill="#2BB4FF"/>
<path d="M476.568 375.02C481.161 373.077 484.416 368.914 486.409 364.448C487.419 362.151 488.201 359.805 488.756 357.382C489.311 354.96 489.765 351.806 487.797 349.711C484.996 346.759 481.035 348.626 479.092 351.478C477.452 353.875 476.972 357.08 477.679 359.906C479.092 365.608 485.375 368.889 490.901 367.223C497.764 365.179 500.666 358.493 502.836 352.285C503.391 350.67 502.205 348.828 500.641 348.399C498.9 347.92 497.335 348.98 496.755 350.595C495.619 353.875 494.358 357.685 491.557 359.855C490.219 360.89 488.806 361.47 487.242 361.319C486.308 361.218 485.072 360.511 484.466 359.704C483.962 358.997 483.81 358.694 483.684 357.837C483.608 357.382 483.659 356.701 483.861 356.045C483.987 355.641 484.643 354.834 484.668 354.556C484.542 355.919 484.794 354.354 484.82 354.405C484.895 354.632 483.28 354.077 483.205 353.976C483.053 353.85 483.003 353.648 482.927 353.496C483.028 353.724 483.028 353.85 482.978 353.496C483.003 353.698 482.978 354.506 482.978 354.304C483.003 353.976 482.978 354.43 482.952 354.48C482.902 354.708 482.851 354.935 482.801 355.162C482.624 356.045 482.397 356.903 482.145 357.761C481.691 359.376 481.136 360.915 480.505 362.227C478.839 365.684 476.846 368.081 473.389 369.545C471.825 370.201 471.471 372.522 472.254 373.86C473.212 375.474 475.004 375.651 476.568 374.995V375.02Z" fill="#1FFFD6"/>
<path d="M521.326 192.572L529.452 197.013C530.183 197.417 531.066 197.543 531.874 197.342C532.606 197.14 533.388 196.585 533.766 195.903C534.549 194.414 534.17 192.421 532.631 191.588L524.506 187.147C523.774 186.744 522.891 186.617 522.084 186.819C521.352 187.021 520.57 187.576 520.191 188.258C519.409 189.746 519.787 191.74 521.326 192.572Z" fill="#1FFFD6"/>
<path d="M560.273 253.801C561.03 255.845 561.585 257.99 561.887 260.16L561.786 259.327C561.862 259.933 561.938 260.539 561.963 261.144C562.014 261.977 562.266 262.759 562.897 263.365C563.452 263.92 564.335 264.324 565.117 264.298C565.899 264.273 566.783 263.996 567.338 263.365C567.893 262.734 568.322 261.952 568.271 261.144C568.044 258.066 567.439 255.013 566.379 252.136C566.076 251.354 565.672 250.698 564.941 250.243C564.259 249.84 563.275 249.688 562.518 249.915C561.761 250.143 561.029 250.647 560.626 251.354C560.222 252.06 560.02 252.994 560.298 253.776L560.273 253.801Z" fill="#7FE27C"/>
</svg>
